<?xml version="1.0" encoding="UTF-8"?>
<svg xmlns="http://www.w3.org/2000/svg" xmlns:xlink="http://www.w3.org/1999/xlink" width="48" height="48" viewBox="0 0 48 48" version="1.1">
<g id="surface1">
<path style=" stroke:none;fill-rule:nonzero;fill:rgb(100%,60.000002%,0%);fill-opacity:1;" d="M 48 24 C 48 37.257812 37.257812 48 24 48 C 10.742188 48 0 37.257812 0 24 C 0 10.742188 10.742188 0 24 0 C 37.257812 0 48 10.742188 48 24 Z M 48 24 "/>
<path style=" stroke:none;fill-rule:nonzero;fill:rgb(100%,100%,100%);fill-opacity:1;" d="M 26.785156 17.679688 C 26.089844 17.738281 25.285156 17.792969 24.476562 17.898438 C 23.25 18.054688 22.011719 18.273438 20.992188 18.75 C 19.003906 19.554688 17.664062 21.273438 17.664062 23.792969 C 17.664062 26.960938 19.695312 28.574219 22.273438 28.574219 C 23.136719 28.574219 23.832031 28.472656 24.46875 28.3125 C 25.492188 27.992188 26.34375 27.402344 27.367188 26.324219 C 27.957031 27.132812 28.117188 27.507812 29.136719 28.367188 C 29.410156 28.480469 29.671875 28.480469 29.886719 28.3125 C 30.535156 27.777344 31.660156 26.8125 32.25 26.269531 C 32.523438 26.054688 32.464844 25.734375 32.304688 25.460938 C 31.714844 24.710938 31.125 24.066406 31.125 22.621094 L 31.125 17.785156 C 31.125 15.742188 31.285156 13.867188 29.785156 12.46875 C 28.554688 11.34375 26.625 10.914062 25.125 10.914062 C 24.910156 10.914062 24.695312 10.914062 24.476562 10.914062 C 21.742188 11.070312 18.851562 12.253906 18.207031 15.636719 C 18.101562 16.070312 18.421875 16.226562 18.636719 16.285156 L 21.636719 16.660156 C 21.957031 16.601562 22.117188 16.339844 22.171875 16.070312 C 22.445312 14.886719 23.410156 14.296875 24.476562 14.195312 C 24.535156 14.195312 24.589844 14.195312 24.695312 14.195312 C 25.332031 14.195312 26.035156 14.464844 26.410156 15 C 26.839844 15.648438 26.785156 16.507812 26.785156 17.257812 Z M 26.785156 20.792969 C 26.785156 22.03125 26.839844 22.996094 26.195312 24.066406 C 25.820312 24.816406 25.171875 25.304688 24.476562 25.460938 C 24.375 25.460938 24.214844 25.519531 24.046875 25.519531 C 22.867188 25.519531 22.171875 24.609375 22.171875 23.257812 C 22.171875 21.542969 23.195312 20.738281 24.476562 20.363281 C 25.171875 20.203125 25.976562 20.148438 26.785156 20.148438 Z M 36.65625 35.867188 C 37.96875 34.761719 38.523438 32.746094 38.550781 31.695312 L 38.550781 31.519531 C 38.550781 31.285156 38.492188 31.105469 38.4375 31.023438 C 38.175781 30.703125 36.253906 30.414062 34.59375 30.898438 C 34.125 31.050781 33.722656 31.246094 33.335938 31.507812 C 33.046875 31.714844 33.101562 31.976562 33.394531 31.949219 C 33.710938 31.894531 34.125 31.867188 34.585938 31.800781 C 35.605469 31.714844 36.796875 31.6875 37.085938 32.0625 C 37.492188 32.558594 36.617188 34.714844 36.242188 35.652344 C 36.140625 35.960938 36.394531 36.074219 36.65625 35.867188 Z M 9.898438 31.695312 C 13.660156 35.109375 18.609375 37.152344 24.140625 37.152344 C 27.582031 37.152344 31.539062 36.1875 34.59375 34.351562 C 35.007812 34.117188 35.410156 33.851562 35.785156 33.5625 C 36.308594 33.1875 35.839844 32.597656 35.316406 32.832031 C 35.082031 32.914062 34.820312 33.039062 34.585938 33.121094 C 31.238281 34.433594 27.710938 35.054688 24.449219 35.054688 C 19.265625 35.054688 14.257812 33.617188 10.210938 31.257812 C 9.835938 31.058594 9.570312 31.433594 9.898438 31.695312 Z M 9.898438 31.695312 "/>
</g>
</svg>
