<?xml version="1.0" encoding="UTF-8"?>
<svg xmlns="http://www.w3.org/2000/svg" xmlns:xlink="http://www.w3.org/1999/xlink" width="48" height="48" viewBox="0 0 48 48" version="1.1">
<g id="surface1">
<path style=" stroke:none;fill-rule:nonzero;fill:rgb(63.921571%,18.039216%,80.784315%);fill-opacity:1;" d="M 43.992188 24.019531 C 44.070312 27.839844 42.980469 31.460938 41.050781 34.550781 C 40.472656 33.601562 39.8125 32.699219 39.082031 31.871094 C 40.3125 29.53125 41.011719 26.851562 41.003906 23.980469 C 40.992188 21.101562 40.300781 18.441406 39.082031 16.128906 C 39.8125 15.300781 40.472656 14.398438 41.050781 13.449219 C 43.003906 16.558594 44.09375 20.210938 43.992188 24.019531 Z M 43.992188 24.019531 "/>
<path style=" stroke:none;fill-rule:nonzero;fill:rgb(63.921571%,18.039216%,80.784315%);fill-opacity:1;" d="M 8.882812 31.921875 C 8.183594 32.71875 7.550781 33.578125 7.003906 34.480469 C 5.09375 31.421875 4.003906 27.820312 4.003906 23.980469 C 4.003906 20.148438 5.101562 16.570312 6.992188 13.519531 C 7.5625 14.441406 8.203125 15.300781 8.902344 16.109375 C 7.601562 18.511719 6.902344 21.230469 7.011719 24.039062 C 6.910156 26.820312 7.601562 29.519531 8.882812 31.921875 Z M 8.882812 31.921875 "/>
<path style=" stroke:none;fill-rule:nonzero;fill:rgb(63.921571%,18.039216%,80.784315%);fill-opacity:1;" d="M 20.003906 22.589844 L 20.003906 25.410156 C 17.972656 25.808594 16.050781 26.539062 14.292969 27.519531 C 14.632812 26.539062 15.261719 25.660156 16.152344 24.941406 C 16.421875 24.660156 16.78125 24.441406 16.980469 23.980469 C 16.652344 23.429688 16.152344 23.070312 15.753906 22.660156 C 15.101562 22.011719 14.613281 21.28125 14.320312 20.5 C 16.070312 21.46875 17.980469 22.191406 20.003906 22.589844 Z M 20.003906 22.589844 "/>
<path style=" stroke:none;fill-rule:nonzero;fill:rgb(63.921571%,18.039216%,80.784315%);fill-opacity:1;" d="M 34.472656 25.269531 C 34.222656 25.878906 33.703125 26.089844 33.011719 25.960938 C 32.421875 25.851562 32.09375 25.480469 32.023438 24.828125 C 31.980469 24.550781 32.023438 24.261719 32.023438 23.960938 C 32.023438 23.679688 32.003906 23.371094 32.023438 23.089844 C 32.113281 22.460938 32.480469 22.109375 33.101562 22.019531 C 33.742188 21.929688 34.203125 22.128906 34.441406 22.71875 C 34.800781 23.539062 34.800781 24.421875 34.472656 25.269531 Z M 34.472656 25.269531 "/>
<path style=" stroke:none;fill-rule:nonzero;fill:rgb(63.921571%,18.039216%,80.784315%);fill-opacity:1;" d="M 25.003906 22.96875 L 25.003906 25.03125 C 24.671875 25.011719 24.332031 25 24.003906 25 C 23.320312 25 22.660156 25.03125 22.003906 25.101562 L 22.003906 22.898438 C 22.660156 22.96875 23.320312 23 24.003906 23 C 24.332031 23 24.671875 22.988281 25.003906 22.96875 Z M 25.003906 22.96875 "/>
<path style=" stroke:none;fill-rule:nonzero;fill:rgb(63.921571%,18.039216%,80.784315%);fill-opacity:1;" d="M 30.003906 22.078125 L 30.003906 25.921875 C 29.03125 25.609375 28.03125 25.378906 27.003906 25.21875 L 27.003906 22.78125 C 28.03125 22.621094 29.03125 22.390625 30.003906 22.078125 Z M 30.003906 22.078125 "/>
<path style=" stroke:none;fill-rule:nonzero;fill:rgb(37.64706%,41.960785%,85.490197%);fill-opacity:1;" d="M 41.050781 13.449219 C 40.472656 14.398438 39.8125 15.300781 39.082031 16.128906 C 38.59375 15.191406 38.023438 14.308594 37.363281 13.5 C 38.023438 12.679688 38.601562 11.789062 39.082031 10.839844 C 39.820312 11.660156 40.472656 12.519531 41.050781 13.449219 Z M 41.050781 13.449219 "/>
<path style=" stroke:none;fill-rule:nonzero;fill:rgb(37.64706%,41.960785%,85.490197%);fill-opacity:1;" d="M 10.632812 13.488281 C 9.972656 14.308594 9.390625 15.191406 8.902344 16.109375 C 8.203125 15.300781 7.5625 14.441406 6.992188 13.519531 C 7.570312 12.589844 8.222656 11.710938 8.941406 10.890625 C 9.421875 11.808594 9.992188 12.679688 10.632812 13.488281 Z M 10.632812 13.488281 "/>
<path style=" stroke:none;fill-rule:nonzero;fill:rgb(37.64706%,41.960785%,85.490197%);fill-opacity:1;" d="M 14.320312 20.5 L 14.320312 20.488281 C 14.140625 20 14.03125 19.5 14.003906 19 C 13.960938 18.308594 14.070312 17.609375 14.3125 16.960938 C 16.003906 18.148438 17.921875 19.03125 19.992188 19.53125 C 20.003906 20.550781 20.003906 21.570312 20.003906 22.589844 C 17.980469 22.191406 16.070312 21.46875 14.320312 20.5 Z M 14.320312 20.5 "/>
<path style=" stroke:none;fill-rule:nonzero;fill:rgb(37.64706%,41.960785%,85.490197%);fill-opacity:1;" d="M 25.003906 19.96875 L 25.003906 22.96875 C 24.671875 22.988281 24.332031 23 24.003906 23 C 23.320312 23 22.660156 22.96875 22.003906 22.898438 L 22.003906 19.878906 C 22.652344 19.960938 23.320312 20 24.003906 20 C 24.332031 20 24.671875 19.988281 25.003906 19.96875 Z M 25.003906 19.96875 "/>
<path style=" stroke:none;fill-rule:nonzero;fill:rgb(37.64706%,41.960785%,85.490197%);fill-opacity:1;" d="M 30.003906 19.5 L 30.003906 22.078125 C 29.03125 22.390625 28.03125 22.621094 27.003906 22.78125 L 27.003906 19.730469 C 28.003906 19.558594 28.960938 19.300781 29.890625 18.949219 C 29.960938 19.121094 30.003906 19.308594 30.003906 19.5 Z M 30.003906 19.5 "/>
<path style=" stroke:none;fill-rule:nonzero;fill:rgb(0%,56.862748%,91.764706%);fill-opacity:1;" d="M 39.082031 10.828125 L 39.082031 10.839844 C 38.601562 11.789062 38.023438 12.679688 37.363281 13.5 C 34.183594 9.480469 29.230469 7.011719 23.941406 7 C 18.601562 7 13.761719 9.601562 10.632812 13.488281 C 9.992188 12.679688 9.421875 11.808594 8.941406 10.890625 C 12.621094 6.671875 18.042969 3.988281 24.042969 4 C 30.042969 4 35.433594 6.691406 39.082031 10.828125 Z M 39.082031 10.828125 "/>
<path style=" stroke:none;fill-rule:nonzero;fill:rgb(0%,56.862748%,91.764706%);fill-opacity:1;" d="M 19.992188 19.53125 C 17.921875 19.03125 16.003906 18.148438 14.3125 16.960938 C 14.8125 15.578125 15.902344 14.371094 17.453125 13.699219 C 18.792969 13.109375 19.980469 13.828125 19.980469 15.261719 C 19.980469 16.691406 19.992188 18.109375 19.992188 19.53125 Z M 19.992188 19.53125 "/>
<path style=" stroke:none;fill-rule:nonzero;fill:rgb(0%,56.862748%,91.764706%);fill-opacity:1;" d="M 25.003906 15.5 L 25.003906 19.96875 C 24.671875 19.988281 24.332031 20 24.003906 20 C 23.320312 20 22.652344 19.960938 22.003906 19.878906 L 22.003906 15.5 C 22.003906 14.671875 22.671875 14 23.503906 14 C 24.332031 14 25.003906 14.671875 25.003906 15.5 Z M 25.003906 15.5 "/>
<path style=" stroke:none;fill-rule:nonzero;fill:rgb(0%,56.862748%,91.764706%);fill-opacity:1;" d="M 29.890625 18.949219 C 28.960938 19.300781 28.003906 19.558594 27.003906 19.730469 L 27.003906 19.5 C 27.003906 18.671875 27.671875 18 28.503906 18 C 29.140625 18 29.683594 18.390625 29.890625 18.949219 Z M 29.890625 18.949219 "/>
<path style=" stroke:none;fill-rule:nonzero;fill:rgb(77.254903%,21.568628%,66.666669%);fill-opacity:1;" d="M 41.050781 34.550781 C 40.472656 35.480469 39.820312 36.359375 39.09375 37.179688 C 38.613281 36.230469 38.03125 35.339844 37.371094 34.511719 C 38.023438 33.691406 38.601562 32.808594 39.082031 31.871094 C 39.8125 32.699219 40.472656 33.601562 41.050781 34.550781 Z M 41.050781 34.550781 "/>
<path style=" stroke:none;fill-rule:nonzero;fill:rgb(77.254903%,21.568628%,66.666669%);fill-opacity:1;" d="M 10.613281 34.539062 C 9.972656 35.339844 9.421875 36.199219 8.941406 37.109375 C 8.222656 36.289062 7.570312 35.410156 7.003906 34.480469 C 7.550781 33.578125 8.183594 32.71875 8.882812 31.921875 C 9.371094 32.839844 9.953125 33.71875 10.613281 34.539062 Z M 10.613281 34.539062 "/>
<path style=" stroke:none;fill-rule:nonzero;fill:rgb(77.254903%,21.568628%,66.666669%);fill-opacity:1;" d="M 20.003906 25.410156 C 20.003906 26.429688 20.003906 27.449219 19.992188 28.46875 C 17.902344 28.980469 15.972656 29.871094 14.273438 31.070312 C 14.121094 30.601562 14.042969 30.101562 14.011719 29.558594 C 13.972656 28.851562 14.070312 28.160156 14.292969 27.519531 C 16.050781 26.539062 17.972656 25.808594 20.003906 25.410156 Z M 20.003906 25.410156 "/>
<path style=" stroke:none;fill-rule:nonzero;fill:rgb(77.254903%,21.568628%,66.666669%);fill-opacity:1;" d="M 25.003906 25.03125 L 25.003906 28.03125 C 24.671875 28.011719 24.332031 28 24.003906 28 C 23.320312 28 22.652344 28.039062 22.003906 28.121094 L 22.003906 25.101562 C 22.660156 25.03125 23.320312 25 24.003906 25 C 24.332031 25 24.671875 25.011719 25.003906 25.03125 Z M 25.003906 25.03125 "/>
<path style=" stroke:none;fill-rule:nonzero;fill:rgb(77.254903%,21.568628%,66.666669%);fill-opacity:1;" d="M 30.003906 25.921875 L 30.003906 28.5 C 30.003906 28.691406 29.960938 28.878906 29.890625 29.050781 C 28.960938 28.699219 28.003906 28.441406 27.003906 28.269531 L 27.003906 25.21875 C 28.03125 25.378906 29.03125 25.609375 30.003906 25.921875 Z M 30.003906 25.921875 "/>
<path style=" stroke:none;fill-rule:nonzero;fill:rgb(83.529413%,24.313726%,59.607846%);fill-opacity:1;" d="M 19.992188 28.46875 C 19.992188 29.859375 19.980469 31.238281 19.980469 32.621094 C 19.980469 34.289062 18.820312 34.949219 17.273438 34.269531 C 15.710938 33.578125 14.710938 32.480469 14.273438 31.070312 C 15.972656 29.871094 17.902344 28.980469 19.992188 28.46875 Z M 19.992188 28.46875 "/>
<path style=" stroke:none;fill-rule:nonzero;fill:rgb(83.529413%,24.313726%,59.607846%);fill-opacity:1;" d="M 25.003906 28.03125 L 25.003906 32.5 C 25.003906 33.328125 24.332031 34 23.503906 34 C 22.671875 34 22.003906 33.328125 22.003906 32.5 L 22.003906 28.121094 C 22.652344 28.039062 23.320312 28 24.003906 28 C 24.332031 28 24.671875 28.011719 25.003906 28.03125 Z M 25.003906 28.03125 "/>
<path style=" stroke:none;fill-rule:nonzero;fill:rgb(83.529413%,24.313726%,59.607846%);fill-opacity:1;" d="M 29.890625 29.050781 C 29.683594 29.609375 29.140625 30 28.503906 30 C 27.671875 30 27.003906 29.328125 27.003906 28.5 L 27.003906 28.269531 C 28.003906 28.441406 28.960938 28.699219 29.890625 29.050781 Z M 29.890625 29.050781 "/>
<path style=" stroke:none;fill-rule:nonzero;fill:rgb(83.529413%,24.313726%,59.607846%);fill-opacity:1;" d="M 39.09375 37.179688 C 35.441406 41.328125 30.042969 44.011719 24.023438 44 C 17.992188 43.988281 12.613281 41.308594 8.941406 37.109375 C 9.421875 36.199219 9.972656 35.339844 10.613281 34.539062 C 13.691406 38.390625 18.441406 40.96875 23.761719 41 C 29.253906 41.019531 34.203125 38.511719 37.371094 34.511719 C 38.03125 35.339844 38.613281 36.230469 39.09375 37.179688 Z M 39.09375 37.179688 "/>
</g>
</svg>
