<?xml version="1.0" encoding="UTF-8"?>
<svg xmlns="http://www.w3.org/2000/svg" xmlns:xlink="http://www.w3.org/1999/xlink" width="48" height="48" viewBox="0 0 48 48" version="1.1">
<defs>
<linearGradient id="linear0" gradientUnits="userSpaceOnUse" x1="902" y1="893" x2="241.5" y2="146" >
<stop offset="0" style="stop-color:rgb(35.294119%,78.431374%,98.039216%);stop-opacity:1;"/>
<stop offset="0.523465" style="stop-color:rgb(68.627453%,32.156864%,87.058824%);stop-opacity:0.921569;"/>
<stop offset="0.818643" style="stop-color:rgb(100%,17.647059%,33.333334%);stop-opacity:0.741176;"/>
<stop offset="1" style="stop-color:rgb(100%,23.137255%,18.82353%);stop-opacity:1;"/>
</linearGradient>
<linearGradient id="linear1" gradientUnits="userSpaceOnUse" x1="170" y1="188" x2="866" y2="892" gradientTransform="matrix(0.0444444,0,0,0.0444444,0,0)">
<stop offset="0.0635411" style="stop-color:rgb(98.431373%,25.490198%,24.313726%);stop-opacity:1;"/>
<stop offset="0.381554" style="stop-color:rgb(100%,23.529412%,19.607843%);stop-opacity:1;"/>
<stop offset="0.520016" style="stop-color:rgb(67.843139%,41.176471%,89.019608%);stop-opacity:0.74902;"/>
<stop offset="0.629314" style="stop-color:rgb(36.470589%,76.862746%,97.647059%);stop-opacity:1;"/>
<stop offset="0.962717" style="stop-color:rgb(37.64706%,76.078433%,97.254902%);stop-opacity:1;"/>
</linearGradient>
</defs>
<g id="surface1">
<path style="fill:none;stroke-width:27;stroke-linecap:butt;stroke-linejoin:miter;stroke:url(#linear0);stroke-miterlimit:4;" d="M 537.539062 159.521484 C 747.333984 159.521484 917.490234 329.589844 917.490234 539.472656 C 917.490234 749.355469 747.333984 919.511719 537.539062 919.511719 C 327.65625 919.511719 157.5 749.355469 157.5 539.472656 C 157.5 329.589844 327.65625 159.521484 537.539062 159.521484 Z M 537.539062 159.521484 " transform="matrix(0.0444444,0,0,0.0444444,0,0)"/>
<path style=" stroke:none;fill-rule:nonzero;fill:url(#linear1);" d="M 29.644531 15.042969 C 29.972656 14.984375 30.261719 15.058594 30.511719 15.265625 C 30.765625 15.472656 30.890625 15.742188 30.890625 16.066406 L 30.890625 27.464844 C 30.890625 28.519531 30.59375 29.339844 30 29.933594 C 29.410156 30.511719 28.59375 30.800781 27.558594 30.800781 C 26.847656 30.800781 26.261719 30.613281 25.800781 30.246094 C 25.34375 29.859375 25.113281 29.378906 25.113281 28.800781 C 25.113281 28.074219 25.402344 27.464844 25.980469 26.976562 C 26.558594 26.488281 27.304688 26.246094 28.222656 26.246094 C 28.566406 26.246094 28.925781 26.304688 29.3125 26.421875 C 29.328125 26.421875 29.34375 26.414062 29.355469 26.398438 C 29.371094 26.398438 29.378906 26.390625 29.378906 26.378906 L 29.378906 19.042969 C 29.378906 19 29.355469 18.964844 29.3125 18.933594 C 29.269531 18.890625 29.222656 18.875 29.179688 18.890625 L 20.847656 20.488281 C 20.726562 20.519531 20.667969 20.59375 20.667969 20.710938 L 20.667969 29.6875 C 20.667969 30.742188 20.371094 31.5625 19.78125 32.15625 C 19.1875 32.734375 18.371094 33.023438 17.335938 33.023438 C 16.625 33.023438 16.039062 32.828125 15.578125 32.445312 C 15.121094 32.074219 14.890625 31.601562 14.890625 31.023438 C 14.890625 30.296875 15.179688 29.6875 15.757812 29.199219 C 16.335938 28.710938 17.082031 28.464844 18 28.464844 C 18.34375 28.464844 18.707031 28.527344 19.089844 28.644531 C 19.105469 28.644531 19.121094 28.636719 19.136719 28.621094 C 19.148438 28.621094 19.15625 28.613281 19.15625 28.601562 L 19.15625 18.289062 C 19.15625 17.917969 19.269531 17.59375 19.492188 17.3125 C 19.726562 17.015625 20.023438 16.835938 20.378906 16.777344 Z M 29.644531 15.042969 "/>
</g>
</svg>
