<?xml version="1.0" encoding="UTF-8"?>
<svg xmlns="http://www.w3.org/2000/svg" xmlns:xlink="http://www.w3.org/1999/xlink" width="48" height="48" viewBox="0 0 48 48" version="1.1">
<g id="surface1">
<path style=" stroke:none;fill-rule:evenodd;fill:rgb(3.137255%,38.82353%,100%);fill-opacity:1;" d="M 24 48 C 37.253906 48 48 37.253906 48 24 C 48 10.746094 37.253906 0 24 0 C 10.746094 0 0 10.746094 0 24 C 0 37.253906 10.746094 48 24 48 Z M 24 48 "/>
<path style=" stroke:none;fill-rule:evenodd;fill:rgb(100%,100%,100%);fill-opacity:1;" d="M 28.449219 17.335938 L 36.921875 17.335938 L 36.921875 14.910156 L 28.449219 14.910156 Z M 30.457031 22.636719 C 29.914062 23.183594 29.574219 23.929688 29.4375 24.867188 L 36.027344 24.867188 C 35.957031 23.867188 35.613281 23.109375 35.007812 22.585938 C 34.394531 22.070312 33.640625 21.8125 32.738281 21.8125 C 31.757812 21.8125 30.996094 22.085938 30.457031 22.636719 Z M 36.175781 19.375 C 37.195312 19.824219 38.039062 20.539062 38.699219 21.511719 C 39.304688 22.367188 39.691406 23.363281 39.867188 24.492188 C 39.972656 25.152344 40.011719 26.113281 39.996094 27.355469 L 29.339844 27.355469 C 29.40625 28.804688 29.910156 29.816406 30.875 30.398438 C 31.457031 30.761719 32.15625 30.941406 32.980469 30.941406 C 33.847656 30.941406 34.558594 30.722656 35.101562 30.28125 C 35.402344 30.042969 35.664062 29.710938 35.890625 29.289062 L 39.796875 29.289062 C 39.691406 30.144531 39.21875 31.011719 38.378906 31.898438 C 37.070312 33.296875 35.234375 34 32.875 34 C 30.929688 34 29.210938 33.410156 27.726562 32.226562 C 26.234375 31.042969 25.492188 29.117188 25.492188 26.449219 C 25.492188 23.949219 26.164062 22.035156 27.507812 20.699219 C 28.851562 19.367188 30.59375 18.699219 32.734375 18.699219 C 34.007812 18.699219 35.15625 18.925781 36.175781 19.375 Z M 11.941406 24.917969 L 11.941406 30.121094 L 16.742188 30.121094 C 17.601562 30.121094 18.269531 30.007812 18.746094 29.777344 C 19.613281 29.351562 20.046875 28.542969 20.046875 27.34375 C 20.046875 26.328125 19.628906 25.628906 18.789062 25.25 C 18.316406 25.039062 17.65625 24.925781 16.8125 24.917969 Z M 11.941406 17.386719 L 11.941406 21.691406 L 16.75 21.691406 C 17.605469 21.691406 18.304688 21.53125 18.84375 21.207031 C 19.378906 20.882812 19.644531 20.3125 19.644531 19.496094 C 19.644531 18.585938 19.292969 17.984375 18.585938 17.691406 C 17.972656 17.488281 17.191406 17.386719 16.246094 17.386719 Z M 22.679688 16.078125 C 23.285156 16.910156 23.589844 17.898438 23.589844 19.054688 C 23.589844 20.246094 23.285156 21.207031 22.671875 21.929688 C 22.332031 22.335938 21.828125 22.707031 21.164062 23.039062 C 22.171875 23.402344 22.933594 23.976562 23.449219 24.761719 C 23.960938 25.546875 24.21875 26.5 24.21875 27.621094 C 24.21875 28.777344 23.925781 29.8125 23.335938 30.730469 C 22.964844 31.339844 22.5 31.851562 21.9375 32.265625 C 21.308594 32.742188 20.566406 33.066406 19.703125 33.246094 C 18.84375 33.421875 17.914062 33.507812 16.910156 33.507812 L 8 33.507812 L 8 14 L 17.554688 14 C 19.96875 14.035156 21.675781 14.726562 22.679688 16.078125 Z M 22.679688 16.078125 "/>
</g>
</svg>
