<?xml version="1.0" encoding="UTF-8"?>
<svg xmlns="http://www.w3.org/2000/svg" xmlns:xlink="http://www.w3.org/1999/xlink" width="48" height="48" viewBox="0 0 48 48" version="1.1">
<g id="surface1">
<path style=" stroke:none;fill-rule:evenodd;fill:rgb(100%,33.725491%,2.745098%);fill-opacity:1;" d="M 24 48 C 37.253906 48 48 37.253906 48 24 C 48 10.746094 37.253906 0 24 0 C 10.746094 0 0 10.746094 0 24 C 0 37.253906 10.746094 48 24 48 Z M 24 48 "/>
<path style=" stroke:none;fill-rule:evenodd;fill:rgb(100%,100%,100%);fill-opacity:1;" d="M 29.675781 31.535156 L 18.960938 31.535156 C 17.953125 31.535156 17.140625 30.714844 17.140625 29.730469 C 17.140625 28.738281 17.953125 27.925781 18.960938 27.925781 L 29.675781 27.925781 C 30.671875 27.925781 31.484375 28.738281 31.484375 29.730469 C 31.484375 30.714844 30.671875 31.535156 29.675781 31.535156 M 18.960938 17.082031 L 24.234375 17.082031 C 25.238281 17.082031 26.054688 17.894531 26.054688 18.886719 C 26.054688 19.878906 25.238281 20.699219 24.234375 20.699219 L 18.960938 20.699219 C 17.953125 20.699219 17.140625 19.878906 17.140625 18.886719 C 17.140625 17.894531 17.953125 17.082031 18.960938 17.082031 M 38.566406 20.941406 C 37.933594 20.667969 35.21875 20.96875 34.464844 20.289062 C 33.929688 19.796875 33.898438 18.910156 33.6875 17.722656 C 33.339844 15.738281 33.195312 15.289062 32.835938 14.503906 C 31.515625 11.71875 28.359375 9.332031 25.488281 9.332031 L 18.839844 9.332031 C 13.609375 9.332031 9.332031 13.605469 9.332031 18.816406 L 9.332031 29.871094 C 9.332031 35.074219 13.609375 39.332031 18.839844 39.332031 L 29.765625 39.332031 C 34.996094 39.332031 39.242188 35.074219 39.273438 29.871094 L 39.332031 22.214844 C 39.332031 22.214844 39.332031 21.265625 38.566406 20.941406 "/>
</g>
</svg>
