<?xml version="1.0" encoding="UTF-8"?>
<svg xmlns="http://www.w3.org/2000/svg" xmlns:xlink="http://www.w3.org/1999/xlink" width="48" height="48" viewBox="0 0 48 48" version="1.1">
<g id="surface1">
<path style=" stroke:none;fill-rule:evenodd;fill:rgb(24.313726%,43.529412%,63.137257%);fill-opacity:1;" d="M 24 48 C 37.253906 48 48 37.253906 48 24 C 48 10.746094 37.253906 0 24 0 C 10.746094 0 0 10.746094 0 24 C 0 37.253906 10.746094 48 24 48 Z M 24 48 "/>
<path style=" stroke:none;fill-rule:evenodd;fill:rgb(100%,100%,100%);fill-opacity:1;" d="M 25.917969 29.597656 C 25.980469 28.644531 26.410156 27.160156 27.484375 27.96875 C 28.132812 28.460938 28.648438 29.167969 29.230469 29.792969 C 29.800781 30.398438 30.480469 30.929688 31.742188 30.898438 C 32.492188 30.878906 34.648438 30.949219 35.210938 30.746094 C 36.90625 30.128906 33.902344 27.316406 33.167969 26.6875 C 32.859375 26.421875 32.511719 26.046875 32.246094 25.765625 C 31.917969 25.417969 31.761719 25.066406 32.023438 24.523438 L 33.160156 22.925781 C 33.496094 22.558594 34.742188 20.777344 35.042969 20.289062 C 35.476562 19.585938 36.367188 18.203125 35.21875 17.984375 C 34.574219 17.859375 32.480469 17.972656 31.683594 17.980469 C 30.117188 17.988281 30.433594 17.816406 29.660156 19.605469 C 29.144531 20.792969 27.554688 23.59375 26.710938 23.914062 C 25.144531 24.507812 26.367188 18.832031 25.707031 17.851562 C 25.308594 17.257812 23.453125 17.332031 22.585938 17.34375 C 21.578125 17.355469 20.183594 17.410156 19.890625 18.238281 C 19.980469 18.316406 19.882812 18.265625 20.054688 18.335938 C 20.179688 18.386719 20.378906 18.398438 20.589844 18.511719 C 20.777344 18.613281 20.949219 18.789062 21.050781 18.945312 C 21.523438 19.707031 21.46875 22.910156 21.074219 23.683594 C 20.335938 25.136719 18.1875 21.058594 17.816406 20.332031 C 17.292969 19.296875 17.085938 18.289062 16.488281 18.03125 C 16.058594 17.84375 13.609375 17.949219 12.949219 17.960938 C 12.347656 17.96875 11.824219 18.066406 12.054688 18.78125 C 12.171875 19.140625 12.445312 19.644531 12.609375 20.007812 C 13.632812 22.25 15.226562 25.003906 16.632812 26.867188 C 18.222656 28.96875 20.570312 30.832031 23.539062 30.859375 C 25.667969 30.875 25.828125 30.96875 25.917969 29.597656 "/>
</g>
</svg>
