<?xml version="1.0" encoding="UTF-8"?>
<svg xmlns="http://www.w3.org/2000/svg" xmlns:xlink="http://www.w3.org/1999/xlink" width="48" height="48" viewBox="0 0 48 48" version="1.1">
<g id="surface1">
<path style=" stroke:none;fill-rule:evenodd;fill:rgb(4.313726%,4.313726%,3.921569%);fill-opacity:1;" d="M 24 48 C 37.253906 48 48 37.253906 48 24 C 48 10.746094 37.253906 0 24 0 C 10.746094 0 0 10.746094 0 24 C 0 37.253906 10.746094 48 24 48 Z M 24 48 "/>
<path style=" stroke:none;fill-rule:evenodd;fill:rgb(100%,100%,100%);fill-opacity:1;" d="M 39.988281 18.945312 C 39.984375 18.925781 39.980469 18.90625 39.976562 18.886719 C 39.96875 18.847656 39.964844 18.808594 39.953125 18.769531 C 39.945312 18.746094 39.9375 18.726562 39.929688 18.703125 C 39.921875 18.671875 39.910156 18.636719 39.894531 18.605469 C 39.886719 18.582031 39.875 18.558594 39.863281 18.535156 C 39.851562 18.503906 39.835938 18.476562 39.816406 18.445312 C 39.804688 18.425781 39.792969 18.402344 39.777344 18.382812 C 39.761719 18.351562 39.742188 18.324219 39.722656 18.296875 C 39.707031 18.277344 39.691406 18.257812 39.675781 18.238281 C 39.652344 18.214844 39.628906 18.1875 39.605469 18.164062 C 39.585938 18.144531 39.570312 18.128906 39.550781 18.109375 C 39.523438 18.089844 39.5 18.066406 39.472656 18.046875 C 39.453125 18.027344 39.433594 18.011719 39.410156 17.996094 C 39.402344 17.992188 39.394531 17.984375 39.386719 17.980469 L 24.761719 8.230469 C 24.300781 7.921875 23.699219 7.921875 23.238281 8.230469 L 8.613281 17.980469 C 8.605469 17.984375 8.597656 17.992188 8.589844 17.996094 C 8.566406 18.011719 8.546875 18.027344 8.527344 18.046875 C 8.5 18.066406 8.476562 18.089844 8.449219 18.109375 C 8.429688 18.128906 8.414062 18.144531 8.394531 18.164062 C 8.371094 18.1875 8.347656 18.214844 8.328125 18.238281 C 8.308594 18.257812 8.292969 18.277344 8.277344 18.296875 C 8.257812 18.324219 8.238281 18.351562 8.222656 18.382812 C 8.207031 18.402344 8.195312 18.425781 8.183594 18.445312 C 8.164062 18.476562 8.148438 18.503906 8.136719 18.535156 C 8.125 18.558594 8.113281 18.582031 8.105469 18.605469 C 8.089844 18.636719 8.078125 18.671875 8.070312 18.703125 C 8.0625 18.726562 8.054688 18.746094 8.046875 18.769531 C 8.039062 18.808594 8.03125 18.847656 8.023438 18.886719 C 8.019531 18.90625 8.015625 18.925781 8.011719 18.945312 C 8.003906 19.003906 8 19.0625 8 19.125 L 8 28.875 C 8 28.933594 8.003906 28.996094 8.011719 29.054688 C 8.015625 29.074219 8.019531 29.09375 8.023438 29.113281 C 8.03125 29.152344 8.039062 29.191406 8.046875 29.230469 C 8.054688 29.253906 8.0625 29.273438 8.070312 29.296875 C 8.078125 29.328125 8.089844 29.363281 8.105469 29.398438 C 8.113281 29.417969 8.125 29.441406 8.136719 29.464844 C 8.148438 29.492188 8.164062 29.523438 8.183594 29.554688 C 8.195312 29.574219 8.207031 29.597656 8.222656 29.617188 C 8.238281 29.648438 8.257812 29.675781 8.277344 29.699219 C 8.292969 29.722656 8.308594 29.742188 8.328125 29.761719 C 8.347656 29.785156 8.371094 29.8125 8.394531 29.835938 C 8.414062 29.855469 8.429688 29.871094 8.449219 29.890625 C 8.476562 29.910156 8.5 29.933594 8.527344 29.953125 C 8.546875 29.972656 8.566406 29.988281 8.589844 30.003906 C 8.597656 30.007812 8.605469 30.015625 8.613281 30.019531 L 23.238281 39.769531 C 23.46875 39.921875 23.734375 40 24 40 C 24.265625 40 24.53125 39.921875 24.761719 39.769531 L 39.386719 30.019531 C 39.394531 30.015625 39.402344 30.007812 39.410156 30.003906 C 39.433594 29.988281 39.453125 29.972656 39.472656 29.953125 C 39.5 29.933594 39.523438 29.910156 39.550781 29.890625 C 39.570312 29.871094 39.585938 29.855469 39.605469 29.835938 C 39.628906 29.8125 39.652344 29.785156 39.675781 29.761719 C 39.691406 29.742188 39.707031 29.722656 39.722656 29.699219 C 39.742188 29.675781 39.761719 29.648438 39.777344 29.617188 C 39.792969 29.597656 39.804688 29.574219 39.816406 29.554688 C 39.835938 29.523438 39.851562 29.492188 39.863281 29.464844 C 39.875 29.441406 39.886719 29.417969 39.894531 29.398438 C 39.910156 29.363281 39.921875 29.328125 39.929688 29.296875 C 39.9375 29.273438 39.945312 29.253906 39.953125 29.230469 C 39.964844 29.191406 39.96875 29.152344 39.976562 29.113281 C 39.980469 29.09375 39.984375 29.074219 39.988281 29.054688 C 39.996094 28.996094 40 28.933594 40 28.875 L 40 19.125 C 40 19.0625 39.996094 19.003906 39.988281 18.945312 Z M 25.375 11.945312 L 36.148438 19.128906 L 31.335938 22.347656 L 25.375 18.359375 Z M 22.625 11.945312 L 22.625 18.359375 L 16.664062 22.347656 L 11.851562 19.128906 Z M 10.75 21.699219 L 14.191406 24 L 10.75 26.300781 Z M 22.625 36.054688 L 11.851562 28.871094 L 16.664062 25.65625 L 22.625 29.640625 Z M 24 27.253906 L 19.136719 24 L 24 20.746094 L 28.863281 24 Z M 25.375 36.054688 L 25.375 29.640625 L 31.335938 25.65625 L 36.148438 28.871094 Z M 37.25 26.300781 L 33.808594 24 L 37.25 21.699219 Z M 37.25 26.300781 "/>
</g>
</svg>
