<?xml version="1.0" encoding="UTF-8"?>
<svg xmlns="http://www.w3.org/2000/svg" xmlns:xlink="http://www.w3.org/1999/xlink" width="48" height="48" viewBox="0 0 48 48" version="1.1">
<g id="surface1">
<path style=" stroke:none;fill-rule:nonzero;fill:rgb(0%,40.000001%,86.274511%);fill-opacity:1;" d="M 24 48 C 10.734375 48 0 37.265625 0 24 C 0 10.734375 10.734375 0 24 0 C 37.265625 0 48 10.734375 48 24 C 48 37.265625 37.265625 48 24 48 Z M 27.867188 40.464844 L 35 40.464844 L 35 5.867188 L 27.667969 7.398438 L 27.667969 18.265625 C 26 16.132812 23.667969 15.132812 20.667969 15.132812 C 17.535156 15.132812 14.667969 16.265625 12.332031 18.601562 C 9.734375 21.132812 8.332031 24.332031 8.332031 27.933594 C 8.332031 31.867188 9.800781 35.199219 12.734375 37.734375 C 14.933594 39.667969 17.535156 40.667969 20.535156 40.667969 C 23.535156 40.667969 25.734375 39.867188 27.933594 37.734375 L 27.933594 40.464844 Z M 15.601562 27.800781 C 15.601562 24.464844 18.332031 21.601562 21.800781 21.601562 C 25.265625 21.601562 27.867188 24.332031 27.867188 27.867188 C 27.867188 31.332031 25.199219 33.933594 22.066406 33.933594 C 18.332031 34 15.601562 31.332031 15.601562 27.800781 Z M 15.601562 27.800781 "/>
</g>
</svg>
