<?xml version="1.0" encoding="UTF-8"?>
<svg xmlns="http://www.w3.org/2000/svg" xmlns:xlink="http://www.w3.org/1999/xlink" width="48" height="48" viewBox="0 0 48 48" version="1.1">
<g id="surface1">
<path style=" stroke:none;fill-rule:evenodd;fill:rgb(0%,31.37255%,53.725493%);fill-opacity:1;" d="M 24 48 C 37.253906 48 48 37.253906 48 24 C 48 10.746094 37.253906 0 24 0 C 10.746094 0 0 10.746094 0 24 C 0 37.253906 10.746094 48 24 48 Z M 24 48 "/>
<path style=" stroke:none;fill-rule:evenodd;fill:rgb(100%,100%,100%);fill-opacity:1;" d="M 22.558594 20.972656 L 26.515625 21.9375 L 26.519531 26.558594 L 24.566406 26.558594 L 24.535156 21.949219 L 22.566406 21.953125 L 22.5625 28.527344 L 26.519531 28.542969 L 26.519531 30.519531 L 22.566406 30.535156 L 22.5625 32.488281 L 28.480469 32.5 L 28.503906 19.964844 L 22.539062 19.960938 Z M 15.960938 19.71875 L 15.945312 19.957031 L 15.703125 19.960938 L 12 19.960938 L 12 28.542969 L 17.949219 28.542969 L 17.941406 16 L 15.960938 16 Z M 13.988281 21.945312 L 15.960938 21.949219 L 15.960938 26.5625 L 13.980469 26.535156 Z M 19.285156 28.539062 L 21.222656 28.539062 L 21.242188 19.96875 L 19.296875 19.960938 C 19.21875 20.257812 19.207031 28.023438 19.285156 28.539062 Z M 19.257812 17.976562 L 21.242188 17.976562 L 21.238281 16.011719 L 19.292969 16 Z M 29.820312 20.726562 L 29.820312 20.859375 C 29.894531 21.078125 33.160156 21.769531 33.777344 21.953125 L 33.78125 26.539062 L 31.800781 26.550781 L 31.800781 21.941406 L 29.832031 21.941406 C 29.757812 23.285156 29.820312 26.960938 29.820312 28.542969 L 33.75 28.542969 L 33.785156 30.5 L 29.824219 30.523438 L 29.820312 32.472656 L 35.734375 32.503906 C 35.824219 31.835938 35.761719 21.53125 35.761719 19.960938 L 29.777344 19.960938 Z M 29.820312 20.726562 "/>
</g>
</svg>
