<?xml version="1.0" encoding="UTF-8"?>
<svg xmlns="http://www.w3.org/2000/svg" xmlns:xlink="http://www.w3.org/1999/xlink" width="48" height="48" viewBox="0 0 48 48" version="1.1">
<g id="surface1">
<path style=" stroke:none;fill-rule:nonzero;fill:rgb(54.901963%,61.960787%,100%);fill-opacity:1;" d="M 48 24 C 48 37.253906 37.253906 48 24 48 C 10.746094 48 0 37.253906 0 24 C 0 10.746094 10.746094 0 24 0 C 37.253906 0 48 10.746094 48 24 Z M 48 24 "/>
<path style=" stroke:none;fill-rule:nonzero;fill:rgb(100%,100%,100%);fill-opacity:1;" d="M 34.914062 15.816406 C 34.914062 15.816406 31.789062 13.367188 28.097656 13.085938 L 27.769531 13.753906 C 31.105469 14.570312 32.632812 15.742188 34.238281 17.175781 C 31.480469 15.769531 28.753906 14.445312 24.007812 14.445312 C 19.265625 14.445312 16.539062 15.769531 13.78125 17.175781 C 15.382812 15.742188 17.203125 14.4375 20.25 13.753906 L 19.921875 13.085938 C 16.050781 13.453125 13.105469 15.816406 13.105469 15.816406 C 13.105469 15.816406 9.617188 20.878906 9.019531 30.816406 C 12.535156 34.875 17.878906 34.902344 17.878906 34.902344 L 18.992188 33.414062 C 17.101562 32.757812 14.953125 31.574219 13.105469 29.445312 C 15.308594 31.117188 18.648438 32.859375 24.019531 32.859375 C 29.390625 32.859375 32.71875 31.125 34.929688 29.445312 C 33.085938 31.574219 30.9375 32.757812 29.042969 33.414062 L 30.160156 34.902344 C 30.160156 34.902344 35.503906 34.875 39.019531 30.816406 C 38.398438 20.878906 34.914062 15.816406 34.914062 15.816406 Z M 19.566406 28.085938 C 18.242188 28.085938 17.175781 26.867188 17.175781 25.359375 C 17.175781 23.851562 18.242188 22.632812 19.566406 22.632812 C 20.886719 22.632812 21.957031 23.851562 21.957031 25.359375 C 21.957031 26.867188 20.886719 28.085938 19.566406 28.085938 Z M 28.433594 28.085938 C 27.113281 28.085938 26.042969 26.867188 26.042969 25.359375 C 26.042969 23.851562 27.113281 22.632812 28.433594 22.632812 C 29.757812 22.632812 30.824219 23.851562 30.824219 25.359375 C 30.824219 26.867188 29.746094 28.085938 28.433594 28.085938 Z M 28.433594 28.085938 "/>
</g>
</svg>
