<?xml version="1.0" encoding="UTF-8"?>
<svg xmlns="http://www.w3.org/2000/svg" xmlns:xlink="http://www.w3.org/1999/xlink" width="48" height="48" viewBox="0 0 48 48" version="1.1">
<g id="surface1">
<path style=" stroke:none;fill-rule:evenodd;fill:rgb(92.54902%,28.627452%,53.725493%);fill-opacity:1;" d="M 24 48 C 37.253906 48 48 37.253906 48 24 C 48 10.746094 37.253906 0 24 0 C 10.746094 0 0 10.746094 0 24 C 0 37.253906 10.746094 48 24 48 Z M 24 48 "/>
<path style=" stroke:none;fill-rule:evenodd;fill:rgb(100%,100%,100%);fill-opacity:1;" d="M 31.636719 35.332031 C 31.496094 34.507812 30.769531 30.496094 28.976562 25.574219 C 33.386719 24.867188 37.210938 26.078125 37.492188 26.171875 C 36.882812 29.976562 34.703125 33.261719 31.636719 35.332031 Z M 24 37.664062 C 20.691406 37.664062 17.660156 36.488281 15.292969 34.53125 C 15.476562 34.679688 15.601562 34.773438 15.601562 34.773438 C 15.601562 34.773438 18.222656 29.058594 26.324219 26.234375 C 26.355469 26.226562 26.386719 26.21875 26.417969 26.207031 C 28.339844 31.203125 29.132812 35.386719 29.335938 36.582031 C 27.695312 37.277344 25.890625 37.664062 24 37.664062 Z M 10.335938 24 C 10.335938 23.855469 10.34375 23.710938 10.347656 23.566406 C 10.589844 23.574219 17.339844 23.726562 24.375 21.621094 C 24.765625 22.386719 25.140625 23.167969 25.484375 23.945312 C 25.304688 23.992188 25.125 24.046875 24.945312 24.109375 C 17.570312 26.488281 13.832031 33.125 13.832031 33.125 C 13.832031 33.125 13.835938 33.128906 13.835938 33.132812 C 11.660156 30.710938 10.335938 27.507812 10.335938 24 Z M 18.171875 11.644531 C 18.351562 11.886719 20.878906 15.3125 23.246094 19.515625 C 16.683594 21.261719 10.988281 21.191406 10.628906 21.183594 C 11.515625 16.953125 14.359375 13.441406 18.171875 11.644531 Z M 20.726562 10.734375 C 20.726562 10.734375 20.726562 10.738281 20.726562 10.738281 C 20.726562 10.738281 20.707031 10.742188 20.683594 10.746094 C 20.699219 10.742188 20.710938 10.738281 20.726562 10.734375 Z M 33.023438 13.746094 C 32.992188 13.796875 31.046875 16.761719 25.886719 18.695312 C 23.550781 14.402344 20.984375 10.992188 20.78125 10.722656 C 21.8125 10.472656 22.890625 10.335938 24 10.335938 C 27.460938 10.335938 30.617188 11.628906 33.023438 13.746094 Z M 37.660156 23.863281 C 37.464844 23.820312 32.839844 22.824219 28.144531 23.414062 C 28.046875 23.183594 27.949219 22.949219 27.847656 22.710938 C 27.566406 22.042969 27.257812 21.378906 26.941406 20.730469 C 32.335938 18.527344 34.527344 15.359375 34.554688 15.320312 C 36.46875 17.648438 37.628906 20.621094 37.660156 23.863281 Z M 39.675781 20.78125 C 39.464844 19.753906 39.148438 18.738281 38.742188 17.773438 C 38.34375 16.824219 37.84375 15.910156 37.265625 15.054688 C 36.695312 14.207031 36.039062 13.410156 35.316406 12.6875 C 34.589844 11.964844 33.792969 11.308594 32.945312 10.734375 C 32.089844 10.15625 31.175781 9.660156 30.230469 9.257812 C 29.261719 8.851562 28.25 8.535156 27.222656 8.328125 C 26.167969 8.109375 25.085938 8 24 8 C 22.914062 8 21.832031 8.109375 20.777344 8.328125 C 19.75 8.535156 18.738281 8.851562 17.769531 9.257812 C 16.824219 9.660156 15.910156 10.15625 15.050781 10.734375 C 14.207031 11.308594 13.410156 11.964844 12.683594 12.6875 C 11.960938 13.410156 11.304688 14.207031 10.734375 15.054688 C 10.15625 15.910156 9.65625 16.824219 9.257812 17.773438 C 8.847656 18.738281 8.535156 19.753906 8.324219 20.78125 C 8.109375 21.832031 8 22.914062 8 24 C 8 25.085938 8.109375 26.171875 8.324219 27.222656 C 8.535156 28.25 8.847656 29.261719 9.257812 30.226562 C 9.65625 31.175781 10.15625 32.09375 10.734375 32.949219 C 11.304688 33.796875 11.960938 34.589844 12.683594 35.316406 C 13.410156 36.039062 14.207031 36.691406 15.050781 37.265625 C 15.910156 37.84375 16.824219 38.339844 17.769531 38.742188 C 18.738281 39.152344 19.75 39.464844 20.777344 39.671875 C 21.832031 39.890625 22.914062 40 24 40 C 25.085938 40 26.167969 39.890625 27.222656 39.671875 C 28.25 39.464844 29.261719 39.152344 30.230469 38.742188 C 31.175781 38.339844 32.089844 37.84375 32.945312 37.265625 C 33.792969 36.691406 34.589844 36.039062 35.316406 35.316406 C 36.039062 34.589844 36.695312 33.796875 37.265625 32.949219 C 37.84375 32.09375 38.34375 31.175781 38.742188 30.226562 C 39.148438 29.261719 39.464844 28.25 39.675781 27.222656 C 39.890625 26.171875 40 25.085938 40 24 C 40 22.914062 39.890625 21.832031 39.675781 20.78125 Z M 39.675781 20.78125 "/>
</g>
</svg>
