<?xml version="1.0" encoding="UTF-8"?>
<svg xmlns="http://www.w3.org/2000/svg" xmlns:xlink="http://www.w3.org/1999/xlink" width="48" height="48" viewBox="0 0 48 48" version="1.1">
<g id="surface1">
<path style=" stroke:none;fill-rule:evenodd;fill:rgb(5.882353%,50.980395%,88.627452%);fill-opacity:1;" d="M 24 48 C 37.253906 48 48 37.253906 48 24 C 48 10.746094 37.253906 0 24 0 C 10.746094 0 0 10.746094 0 24 C 0 37.253906 10.746094 48 24 48 Z M 24 48 "/>
<path style=" stroke:none;fill-rule:evenodd;fill:rgb(100%,100%,100%);fill-opacity:1;" d="M 24 26.6875 L 33.492188 20.78125 L 40 26.035156 L 30.585938 32.230469 L 24 26.6875 L 17.414062 32.230469 L 8 26.035156 L 14.507812 20.78125 Z M 17.414062 9.332031 L 24 14.875 L 14.507812 20.78125 L 8 15.527344 Z M 24.019531 27.882812 L 30.625 33.40625 L 33.453125 31.546875 L 33.453125 33.632812 L 24.019531 39.332031 L 14.585938 33.632812 L 14.585938 31.546875 L 17.414062 33.40625 Z M 40 15.527344 L 30.585938 9.332031 L 24 14.875 L 33.492188 20.78125 Z M 40 15.527344 "/>
</g>
</svg>
