<?xml version="1.0" encoding="UTF-8"?>
<svg xmlns="http://www.w3.org/2000/svg" xmlns:xlink="http://www.w3.org/1999/xlink" width="48" height="48" viewBox="0 0 48 48" version="1.1">
<g id="surface1">
<path style=" stroke:none;fill-rule:nonzero;fill:rgb(30.588236%,44.313726%,65.882355%);fill-opacity:1;" d="M 48 24 C 48 37.253906 37.253906 48 24 48 C 10.746094 48 0 37.253906 0 24 C 0 10.746094 10.746094 0 24 0 C 37.253906 0 48 10.746094 48 24 Z M 48 24 "/>
<path style=" stroke:none;fill-rule:nonzero;fill:rgb(100%,100%,100%);fill-opacity:1;" d="M 29.898438 19.5 L 25.898438 19.5 L 25.898438 16.898438 C 25.898438 15.898438 26.601562 15.699219 27 15.699219 C 27.5 15.699219 29.800781 15.699219 29.800781 15.699219 L 29.800781 11.300781 L 25.898438 11.300781 C 21.5 11.300781 20.601562 14.601562 20.601562 16.601562 L 20.601562 19.5 L 18.101562 19.5 L 18.101562 24 L 20.601562 24 C 20.601562 29.800781 20.601562 36.699219 20.601562 36.699219 L 25.898438 36.699219 C 25.898438 36.699219 25.898438 29.699219 25.898438 24 L 29.5 24 Z M 29.898438 19.5 "/>
</g>
</svg>
