<?xml version="1.0" encoding="UTF-8"?>
<svg xmlns="http://www.w3.org/2000/svg" xmlns:xlink="http://www.w3.org/1999/xlink" width="48" height="48" viewBox="0 0 48 48" version="1.1">
<g id="surface1">
<path style=" stroke:none;fill-rule:evenodd;fill:rgb(92.54902%,92.54902%,92.54902%);fill-opacity:1;" d="M 24 48 C 37.253906 48 48 37.253906 48 24 C 48 10.746094 37.253906 0 24 0 C 10.746094 0 0 10.746094 0 24 C 0 37.253906 10.746094 48 24 48 Z M 24 48 "/>
<path style=" stroke:none;fill-rule:evenodd;fill:rgb(100%,0%,49.803922%);fill-opacity:1;" d="M 39.886719 23.445312 C 39.886719 27.191406 36.8125 30.226562 33.011719 30.226562 C 29.207031 30.226562 26.132812 27.191406 26.132812 23.445312 C 26.132812 19.703125 29.207031 16.667969 33.011719 16.667969 C 36.8125 16.667969 39.886719 19.703125 39.886719 23.445312 "/>
<path style=" stroke:none;fill-rule:evenodd;fill:rgb(3.529412%,37.64706%,83.529413%);fill-opacity:1;" d="M 22.417969 23.445312 C 22.417969 27.191406 19.34375 30.226562 15.539062 30.226562 C 11.742188 30.226562 8.667969 27.191406 8.667969 23.445312 C 8.667969 19.703125 11.742188 16.667969 15.539062 16.667969 C 19.34375 16.667969 22.417969 19.703125 22.417969 23.445312 "/>
</g>
</svg>
