<?xml version="1.0" encoding="UTF-8"?>
<svg xmlns="http://www.w3.org/2000/svg" xmlns:xlink="http://www.w3.org/1999/xlink" width="48" height="48" viewBox="0 0 48 48" version="1.1">
<g id="surface1">
<path style=" stroke:none;fill-rule:evenodd;fill:rgb(98.039216%,27.843139%,47.058824%);fill-opacity:1;" d="M 24 48 C 37.253906 48 48 37.253906 48 24 C 48 10.746094 37.253906 0 24 0 C 10.746094 0 0 10.746094 0 24 C 0 37.253906 10.746094 48 24 48 Z M 24 48 "/>
<path style=" stroke:none;fill-rule:evenodd;fill:rgb(100%,100%,100%);fill-opacity:1;" d="M 31.550781 12.621094 L 30.792969 16.320312 C 30.707031 16.714844 30.339844 17.066406 29.882812 17.066406 L 23.300781 17.066406 C 22.5625 17.066406 21.957031 17.679688 21.957031 18.425781 L 21.957031 19.234375 C 21.957031 19.980469 22.5625 20.59375 23.300781 20.59375 L 28.867188 20.59375 C 29.386719 20.59375 29.820312 21.097656 29.710938 21.644531 C 29.601562 22.214844 29.019531 25.105469 28.953125 25.410156 C 28.910156 25.738281 28.5625 26.15625 28.042969 26.15625 L 23.496094 26.15625 C 22.542969 26.175781 22.347656 26.199219 21.785156 26.898438 C 21.222656 27.601562 16.238281 33.90625 16.238281 33.90625 C 16.195312 33.972656 16.152344 33.953125 16.152344 33.886719 L 16.152344 12.445312 C 16.152344 11.941406 16.566406 11.527344 17.0625 11.527344 L 30.730469 11.527344 C 31.207031 11.527344 31.683594 12.007812 31.550781 12.621094 M 32.546875 8 L 15.675781 8 C 13.359375 8 12.667969 9.773438 12.667969 10.890625 L 12.667969 38.003906 C 12.667969 39.339844 13.339844 39.734375 13.707031 39.886719 C 14.074219 40.039062 15.050781 40.148438 15.742188 39.449219 C 15.742188 39.449219 23.753906 30.007812 23.886719 29.855469 C 24.015625 29.703125 24.082031 29.703125 24.167969 29.703125 L 29.234375 29.703125 C 31.402344 29.703125 31.8125 28.191406 32.050781 27.273438 C 32.246094 26.503906 34.476562 15.554688 35.167969 12.09375 C 35.6875 9.421875 35.015625 8 32.546875 8 "/>
</g>
</svg>
