<?xml version="1.0" encoding="UTF-8"?>
<svg xmlns="http://www.w3.org/2000/svg" xmlns:xlink="http://www.w3.org/1999/xlink" width="48" height="48" viewBox="0 0 48 48" version="1.1">
<g id="surface1">
<path style=" stroke:none;fill-rule:evenodd;fill:rgb(24.313726%,45.882353%,76.47059%);fill-opacity:1;" d="M 24 48 C 37.253906 48 48 37.253906 48 24 C 48 10.746094 37.253906 0 24 0 C 10.746094 0 0 10.746094 0 24 C 0 37.253906 10.746094 48 24 48 Z M 24 48 "/>
<path style=" stroke:none;fill-rule:evenodd;fill:rgb(100%,100%,100%);fill-opacity:1;" d="M 24 8 C 15.164062 8 8 15.191406 8 24.0625 C 8 31.160156 12.585938 37.179688 18.941406 39.304688 C 19.742188 39.453125 20.035156 38.957031 20.035156 38.53125 C 20.035156 38.148438 20.019531 37.140625 20.011719 35.800781 C 15.5625 36.769531 14.621094 33.644531 14.621094 33.644531 C 13.894531 31.789062 12.847656 31.296875 12.847656 31.296875 C 11.394531 30.300781 12.957031 30.320312 12.957031 30.320312 C 14.5625 30.433594 15.40625 31.976562 15.40625 31.976562 C 16.835938 34.429688 19.152344 33.722656 20.0625 33.308594 C 20.210938 32.273438 20.621094 31.5625 21.078125 31.164062 C 17.527344 30.757812 13.792969 29.378906 13.792969 23.222656 C 13.792969 21.46875 14.414062 20.035156 15.4375 18.914062 C 15.273438 18.507812 14.726562 16.875 15.59375 14.664062 C 15.59375 14.664062 16.9375 14.230469 19.996094 16.308594 C 21.273438 15.953125 22.640625 15.773438 24 15.769531 C 25.359375 15.773438 26.730469 15.953125 28.007812 16.308594 C 31.0625 14.230469 32.402344 14.664062 32.402344 14.664062 C 33.273438 16.875 32.726562 18.507812 32.5625 18.914062 C 33.585938 20.035156 34.207031 21.46875 34.207031 23.222656 C 34.207031 29.394531 30.464844 30.753906 26.902344 31.152344 C 27.476562 31.644531 27.988281 32.625 27.988281 34.125 C 27.988281 36.273438 27.96875 38.003906 27.96875 38.53125 C 27.96875 38.960938 28.253906 39.460938 29.066406 39.304688 C 35.421875 37.175781 40 31.160156 40 24.0625 C 40 15.191406 32.835938 8 24 8 "/>
</g>
</svg>
