<?xml version="1.0" encoding="UTF-8"?>
<svg xmlns="http://www.w3.org/2000/svg" xmlns:xlink="http://www.w3.org/1999/xlink" width="48" height="48" viewBox="0 0 48 48" version="1.1">
<g id="surface1">
<path style=" stroke:none;fill-rule:evenodd;fill:rgb(49.411765%,72.549021%,28.627452%);fill-opacity:1;" d="M 24 48 C 37.253906 48 48 37.253906 48 24 C 48 10.746094 37.253906 0 24 0 C 10.746094 0 0 10.746094 0 24 C 0 37.253906 10.746094 48 24 48 Z M 24 48 "/>
<path style=" stroke:none;fill-rule:evenodd;fill:rgb(100%,100%,100%);fill-opacity:1;" d="M 37.789062 19.289062 C 37.304688 16.640625 36.148438 14.328125 34.324219 12.355469 C 33.554688 11.519531 32.691406 10.796875 31.742188 10.179688 C 29.96875 9.035156 28.035156 8.335938 25.941406 8.085938 C 25.683594 8.054688 25.425781 8.058594 25.175781 8 L 23.367188 8 C 23.347656 8.046875 23.304688 8.027344 23.273438 8.03125 C 22.804688 8.074219 22.34375 8.125 21.882812 8.214844 C 18.527344 8.851562 15.769531 10.507812 13.636719 13.179688 C 11.878906 15.378906 10.914062 17.902344 10.707031 20.714844 C 10.605469 22.078125 10.703125 23.429688 11 24.761719 C 11.21875 25.753906 11.550781 26.710938 11.996094 27.625 C 12.03125 27.703125 12.070312 27.78125 12.109375 27.859375 C 12.839844 29.300781 13.777344 30.585938 14.953125 31.691406 C 15.570312 32.277344 16.230469 32.804688 16.949219 33.261719 C 19.140625 34.660156 21.535156 35.390625 24.136719 35.425781 C 24.292969 35.425781 24.339844 35.46875 24.335938 35.628906 C 24.328125 37.027344 24.332031 38.425781 24.332031 39.824219 C 24.332031 39.878906 24.335938 39.933594 24.339844 40 C 24.386719 39.980469 24.414062 39.972656 24.441406 39.957031 C 27.054688 38.726562 29.457031 37.167969 31.597656 35.210938 C 32.023438 34.824219 32.429688 34.417969 32.820312 33.992188 C 32.988281 33.8125 33.15625 33.625 33.324219 33.445312 C 33.582031 33.167969 33.808594 32.855469 34.050781 32.5625 C 34.335938 32.222656 34.589844 31.863281 34.839844 31.5 C 35.394531 30.699219 35.886719 29.863281 36.304688 28.980469 C 36.511719 28.535156 36.714844 28.085938 36.890625 27.625 C 36.898438 27.617188 36.90625 27.609375 36.910156 27.597656 C 37.390625 26.339844 37.699219 25.035156 37.867188 23.695312 C 37.921875 23.230469 37.960938 22.761719 37.984375 22.292969 C 38.035156 21.285156 37.96875 20.28125 37.789062 19.289062 Z M 19.472656 27.835938 C 19.289062 27.863281 19.167969 27.761719 19.097656 27.59375 C 19.097656 27.078125 19.097656 26.5625 19.101562 26.042969 C 19.109375 25.890625 19.046875 25.730469 19.167969 25.59375 C 19.230469 25.527344 19.296875 25.484375 19.390625 25.460938 C 19.660156 25.390625 19.929688 25.339844 20.175781 25.191406 C 20.628906 24.921875 20.910156 24.53125 21.035156 24.019531 C 21.054688 23.941406 21.070312 23.859375 21.089844 23.777344 C 20.007812 23.777344 18.921875 23.773438 17.835938 23.773438 C 17.742188 23.773438 17.652344 23.769531 17.558594 23.746094 C 17.285156 23.667969 17.070312 23.414062 17.070312 23.128906 C 17.070312 21.480469 17.074219 19.835938 17.074219 18.1875 C 17.050781 17.925781 17.074219 17.679688 17.292969 17.492188 C 17.414062 17.390625 17.546875 17.328125 17.703125 17.328125 C 19.296875 17.328125 20.890625 17.328125 22.484375 17.328125 C 22.90625 17.328125 23.144531 17.457031 23.144531 18.1875 C 23.144531 18.3125 23.160156 22.003906 23.144531 23.800781 C 23.136719 24.988281 22.675781 25.992188 21.804688 26.800781 C 21.761719 26.84375 21.71875 26.890625 21.671875 26.933594 C 21.222656 27.277344 20.738281 27.550781 20.183594 27.699219 C 19.949219 27.765625 19.710938 27.800781 19.472656 27.835938 Z M 28.945312 27.605469 C 28.933594 27.609375 28.921875 27.617188 28.910156 27.625 C 28.601562 27.710938 28.289062 27.785156 27.972656 27.832031 C 27.730469 27.867188 27.546875 27.726562 27.542969 27.484375 C 27.539062 27.3125 27.539062 27.140625 27.539062 26.96875 C 27.539062 26.660156 27.542969 26.351562 27.546875 26.042969 C 27.546875 25.976562 27.542969 25.910156 27.542969 25.839844 C 27.542969 25.605469 27.632812 25.503906 27.925781 25.4375 C 28.296875 25.351562 28.648438 25.230469 28.9375 24.960938 C 29.28125 24.640625 29.457031 24.234375 29.539062 23.777344 C 28.535156 23.777344 27.535156 23.773438 26.53125 23.773438 C 26.425781 23.773438 26.316406 23.773438 26.207031 23.773438 C 25.796875 23.765625 25.515625 23.480469 25.515625 23.070312 C 25.515625 21.441406 25.519531 19.816406 25.519531 18.191406 C 25.519531 18.175781 25.519531 18.160156 25.519531 18.144531 C 25.488281 17.839844 25.574219 17.589844 25.84375 17.421875 C 25.949219 17.355469 26.0625 17.328125 26.179688 17.328125 C 27.765625 17.328125 29.347656 17.328125 30.933594 17.328125 C 31.355469 17.324219 31.59375 17.699219 31.59375 18.191406 C 31.59375 18.417969 31.597656 22.007812 31.59375 23.808594 C 31.59375 25.414062 30.589844 26.914062 29.113281 27.53125 C 29.078125 27.546875 29.042969 27.566406 29.003906 27.585938 C 29.03125 27.621094 29.0625 27.628906 29.097656 27.628906 C 29.0625 27.628906 29.03125 27.621094 29.003906 27.585938 C 29.003906 27.585938 28.964844 27.597656 28.945312 27.605469 Z M 28.945312 27.605469 "/>
</g>
</svg>
