<?xml version="1.0" encoding="UTF-8"?>
<svg xmlns="http://www.w3.org/2000/svg" xmlns:xlink="http://www.w3.org/1999/xlink" width="48" height="48" viewBox="0 0 48 48" version="1.1">
<defs>
<linearGradient id="linear0" gradientUnits="userSpaceOnUse" x1="-0.00000120697" y1="32" x2="1" y2="32" gradientTransform="matrix(24.004051,-41.576099,41.576099,24.004051,-1318.439209,-723.34021)">
<stop offset="0" style="stop-color:rgb(99.607843%,75.294119%,32.549021%);stop-opacity:1;"/>
<stop offset="0.327" style="stop-color:rgb(94.901961%,12.54902%,24.313726%);stop-opacity:1;"/>
<stop offset="0.648" style="stop-color:rgb(71.764708%,16.078432%,65.882355%);stop-opacity:1;"/>
<stop offset="1" style="stop-color:rgb(32.549021%,25.882354%,83.92157%);stop-opacity:1;"/>
</linearGradient>
</defs>
<g id="surface1">
<path style=" stroke:none;fill-rule:nonzero;fill:url(#linear0);" d="M 24 0 C 37.199219 0 48 10.800781 48 24 C 48 37.199219 37.199219 48 24 48 C 10.800781 48 0 37.199219 0 24 C 0 10.800781 10.800781 0 24 0 Z M 24 0 "/>
<path style=" stroke:none;fill-rule:nonzero;fill:rgb(100%,100%,100%);fill-opacity:1;" d="M 31.050781 9 L 16.800781 9 C 12.449219 9 9 12.601562 9 17.101562 L 9 30.898438 C 9 35.25 12.449219 38.851562 16.949219 39 L 31.199219 39 C 35.550781 39 39.148438 35.398438 39.148438 30.898438 L 39.148438 17.101562 C 39 12.601562 35.550781 9 31.050781 9 Z M 36.300781 30.75 C 36.300781 33.75 33.898438 36.300781 30.75 36.300781 L 17.101562 36.300781 C 14.101562 36.300781 11.550781 33.75 11.699219 30.75 L 11.699219 17.25 C 11.699219 14.25 14.101562 11.699219 17.101562 11.699219 L 30.75 11.699219 C 33.75 11.699219 36.300781 14.25 36.300781 17.25 Z M 36.300781 30.75 "/>
<path style=" stroke:none;fill-rule:nonzero;fill:rgb(100%,100%,100%);fill-opacity:1;" d="M 24 16.351562 C 19.800781 16.199219 16.199219 19.648438 16.199219 23.851562 C 16.050781 28.050781 19.5 31.648438 23.699219 31.648438 C 27.898438 31.648438 31.5 28.351562 31.5 24.148438 L 31.5 24 C 31.648438 19.800781 28.199219 16.351562 24 16.351562 Z M 24 28.949219 C 21.300781 28.949219 19.050781 26.851562 18.898438 24.148438 C 18.898438 21.449219 21 19.199219 23.699219 19.050781 C 26.398438 18.898438 28.648438 21.148438 28.800781 23.851562 L 28.800781 24 C 28.949219 26.699219 26.699219 28.949219 24 28.949219 Z M 24 28.949219 "/>
<path style=" stroke:none;fill-rule:nonzero;fill:rgb(100%,100%,100%);fill-opacity:1;" d="M 31.949219 14.101562 C 32.851562 14.101562 33.601562 14.851562 33.601562 15.898438 C 33.601562 16.949219 32.851562 17.699219 31.949219 17.699219 C 31.050781 17.699219 30.300781 16.949219 30.300781 15.898438 C 30.300781 14.851562 31.050781 14.101562 31.949219 14.101562 Z M 31.949219 14.101562 "/>
</g>
</svg>
