<?xml version="1.0" encoding="UTF-8"?>
<svg xmlns="http://www.w3.org/2000/svg" xmlns:xlink="http://www.w3.org/1999/xlink" width="48" height="48" viewBox="0 0 48 48" version="1.1">
<g id="surface1">
<path style=" stroke:none;fill-rule:evenodd;fill:rgb(100%,16.470589%,38.82353%);fill-opacity:1;" d="M 24 48 C 37.253906 48 48 37.253906 48 24 C 48 10.746094 37.253906 0 24 0 C 10.746094 0 0 10.746094 0 24 C 0 37.253906 10.746094 48 24 48 Z M 24 48 "/>
<path style=" stroke:none;fill-rule:evenodd;fill:rgb(100%,100%,100%);fill-opacity:1;" d="M 16.042969 15.101562 C 17.636719 15.101562 18.972656 13.851562 18.972656 12.210938 C 18.972656 10.574219 17.636719 9.324219 16.042969 9.324219 C 14.445312 9.324219 13.109375 10.574219 13.109375 12.210938 C 13.109375 13.851562 14.445312 15.101562 16.042969 15.101562 Z M 9.960938 30.574219 C 9.789062 31.308594 9.703125 32.097656 9.703125 32.746094 C 9.703125 35.289062 11.082031 36.980469 14.015625 36.980469 C 16.445312 36.980469 18.417969 35.535156 19.839844 33.203125 L 18.972656 36.679688 L 23.800781 36.679688 L 26.558594 25.613281 C 27.25 22.808594 28.585938 21.355469 30.613281 21.355469 C 32.210938 21.355469 33.199219 22.347656 33.199219 23.984375 C 33.199219 24.460938 33.15625 24.976562 32.984375 25.535156 L 31.5625 30.625 C 31.347656 31.359375 31.261719 32.089844 31.261719 32.78125 C 31.261719 35.195312 32.683594 36.964844 35.660156 36.964844 C 38.203125 36.964844 40.230469 35.324219 41.351562 31.402344 L 39.453125 30.667969 C 38.503906 33.296875 37.683594 33.773438 37.039062 33.773438 C 36.390625 33.773438 36.046875 33.34375 36.046875 32.480469 C 36.046875 32.09375 36.132812 31.660156 36.261719 31.144531 L 37.640625 26.1875 C 37.988281 25.023438 38.117188 23.988281 38.117188 23.042969 C 38.117188 19.332031 35.875 17.398438 33.15625 17.398438 C 30.613281 17.398438 28.027344 19.691406 26.734375 22.109375 L 27.679688 17.773438 L 20.308594 17.773438 L 19.273438 21.589844 L 22.722656 21.589844 L 20.597656 30.097656 C 18.929688 33.804688 15.867188 33.863281 15.480469 33.777344 C 14.851562 33.636719 14.445312 33.394531 14.445312 32.574219 C 14.445312 32.101562 14.53125 31.421875 14.746094 30.601562 L 17.980469 17.773438 L 9.789062 17.773438 L 8.753906 21.589844 L 12.160156 21.589844 Z M 9.960938 30.574219 "/>
</g>
</svg>
