<?xml version="1.0" encoding="UTF-8"?>
<svg xmlns="http://www.w3.org/2000/svg" xmlns:xlink="http://www.w3.org/1999/xlink" width="48" height="48" viewBox="0 0 48 48" version="1.1">
<g id="surface1">
<path style=" stroke:none;fill-rule:nonzero;fill:rgb(83.529413%,6.27451%,2.745098%);fill-opacity:1;" d="M 48 24 C 48 37.257812 37.257812 48 24 48 C 10.742188 48 0 37.257812 0 24 C 0 10.742188 10.742188 0 24 0 C 37.257812 0 48 10.742188 48 24 Z M 48 24 "/>
<path style=" stroke:none;fill-rule:nonzero;fill:rgb(100%,100%,100%);fill-opacity:1;" d="M 18.789062 15.742188 C 17.785156 15.742188 16.808594 15.929688 15.882812 16.292969 C 11.746094 17.925781 9.710938 22.621094 11.34375 26.757812 C 12.570312 29.851562 15.515625 31.855469 18.851562 31.855469 C 19.867188 31.855469 20.859375 31.667969 21.804688 31.292969 C 22.941406 30.84375 23.933594 30.167969 24.757812 29.277344 L 23.632812 26.792969 C 23.289062 27.234375 22.433594 28.246094 20.886719 28.941406 C 20.304688 29.203125 19.640625 29.324219 18.863281 29.324219 C 16.574219 29.324219 14.550781 27.957031 13.714844 25.828125 C 12.601562 22.996094 13.988281 19.78125 16.828125 18.65625 C 17.457031 18.402344 18.121094 18.28125 18.804688 18.28125 C 21.074219 18.28125 23.195312 19.695312 24.085938 21.804688 L 24.289062 22.285156 C 26.023438 26.382812 27.039062 28.742188 27.683594 29.578125 C 28.828125 31.058594 30.289062 31.78125 32.15625 31.78125 C 35.445312 31.78125 37.445312 29.550781 37.648438 27.441406 C 37.875 25.105469 37.039062 23.605469 35.082031 22.867188 C 34.5 22.640625 34.003906 22.492188 33.515625 22.332031 C 33.347656 22.273438 33.1875 22.226562 33.039062 22.179688 C 32.195312 21.929688 31.453125 21.710938 30.769531 21.046875 C 30.488281 20.773438 30.375 20.324219 30.46875 19.835938 C 30.507812 19.640625 30.75 18.628906 31.761719 18.367188 C 31.996094 18.300781 32.230469 18.273438 32.457031 18.273438 C 33.636719 18.273438 34.386719 19.023438 34.472656 19.164062 L 34.507812 19.226562 C 34.59375 19.367188 34.6875 19.507812 34.78125 19.726562 L 36.796875 18.382812 C 36.757812 18.28125 36.695312 18.167969 36.589844 18.046875 L 36.5625 18.007812 C 36.1875 17.476562 34.789062 15.742188 32.429688 15.742188 C 31.996094 15.742188 31.546875 15.796875 31.097656 15.917969 C 29.492188 16.339844 28.285156 17.664062 27.957031 19.359375 C 27.664062 20.859375 28.164062 22.292969 29.25 23.089844 C 30.429688 23.953125 32.570312 24.683594 33.488281 24.992188 C 33.675781 25.058594 33.816406 25.105469 33.898438 25.132812 C 34.867188 25.5 35.210938 26.089844 35.109375 27.1875 C 35.035156 27.976562 34.164062 29.230469 32.136719 29.230469 C 31.050781 29.230469 30.335938 28.875 29.671875 28.011719 C 29.195312 27.394531 27.757812 24 26.605469 21.28125 L 26.398438 20.804688 C 25.105469 17.726562 22.117188 15.742188 18.789062 15.742188 Z M 18.789062 15.742188 "/>
</g>
</svg>
