<?xml version="1.0" encoding="UTF-8"?>
<svg xmlns="http://www.w3.org/2000/svg" xmlns:xlink="http://www.w3.org/1999/xlink" width="48" height="48" viewBox="0 0 48 48" version="1.1">
<g id="surface1">
<path style=" stroke:none;fill-rule:evenodd;fill:rgb(24.313726%,70.588237%,28.627452%);fill-opacity:1;" d="M 24 48 C 37.253906 48 48 37.253906 48 24 C 48 10.746094 37.253906 0 24 0 C 10.746094 0 0 10.746094 0 24 C 0 37.253906 10.746094 48 24 48 Z M 24 48 "/>
<path style=" stroke:none;fill-rule:evenodd;fill:rgb(100%,100%,100%);fill-opacity:1;" d="M 23.835938 21.992188 C 23.78125 22.648438 23.832031 23.535156 23.832031 24.21875 C 23.832031 24.570312 23.882812 24.96875 23.722656 25.238281 C 23.597656 25.441406 23.277344 25.59375 22.964844 25.460938 C 22.675781 25.332031 22.574219 25.140625 22.574219 24.730469 L 22.574219 20.28125 C 22.574219 19.886719 22.6875 19.675781 22.980469 19.566406 C 23.390625 19.417969 23.605469 19.667969 23.761719 19.859375 C 23.980469 20.125 26.015625 22.972656 26.121094 23.035156 C 26.113281 22.289062 26.121094 21.539062 26.121094 20.792969 C 26.121094 20.441406 26.074219 20.015625 26.242188 19.789062 C 26.390625 19.59375 26.734375 19.40625 27.058594 19.605469 C 27.332031 19.777344 27.378906 20 27.378906 20.410156 L 27.378906 23.738281 C 27.378906 24.46875 27.558594 25.320312 26.894531 25.496094 C 26.539062 25.585938 26.304688 25.363281 26.171875 25.164062 Z M 29.460938 24.25 C 29.867188 24.277344 30.351562 24.253906 30.765625 24.253906 C 31.242188 24.253906 31.527344 24.238281 31.734375 24.5625 C 31.964844 24.917969 31.746094 25.304688 31.5 25.429688 C 31.199219 25.585938 29.492188 25.515625 29.039062 25.515625 C 28.617188 25.519531 28.328125 25.417969 28.230469 25.058594 C 28.175781 24.851562 28.1875 20.105469 28.238281 19.957031 C 28.359375 19.597656 28.601562 19.527344 29.070312 19.527344 C 29.496094 19.527344 29.925781 19.527344 30.351562 19.527344 C 30.707031 19.527344 31.242188 19.457031 31.527344 19.613281 C 31.796875 19.761719 31.917969 20.140625 31.722656 20.5 C 31.550781 20.808594 31.179688 20.78125 30.734375 20.78125 C 30.3125 20.78125 29.878906 20.773438 29.460938 20.785156 L 29.460938 21.882812 C 30.160156 21.933594 31.285156 21.773438 31.578125 22.027344 C 31.988281 22.378906 31.808594 22.878906 31.566406 23.03125 C 31.246094 23.230469 30.011719 23.136719 29.460938 23.148438 Z M 17.5 24.257812 C 17.90625 24.246094 18.328125 24.253906 18.734375 24.253906 C 19.144531 24.253906 19.488281 24.207031 19.703125 24.464844 C 19.90625 24.710938 19.894531 25.136719 19.667969 25.34375 C 19.433594 25.5625 19.054688 25.515625 18.667969 25.515625 L 17.453125 25.515625 C 17.042969 25.515625 16.707031 25.5625 16.453125 25.347656 C 16.179688 25.121094 16.242188 24.765625 16.246094 24.34375 L 16.246094 23.160156 C 16.246094 22.363281 16.246094 21.5625 16.246094 20.761719 C 16.246094 20.367188 16.183594 19.960938 16.410156 19.71875 C 16.613281 19.503906 17.023438 19.453125 17.28125 19.683594 C 17.554688 19.929688 17.5 20.222656 17.5 20.664062 Z M 20.851562 19.566406 C 21.15625 19.457031 21.386719 19.585938 21.53125 19.753906 C 21.710938 19.957031 21.6875 20.207031 21.6875 20.503906 L 21.6875 24.121094 C 21.6875 24.785156 21.796875 25.277344 21.246094 25.480469 C 20.992188 25.570312 20.714844 25.445312 20.589844 25.304688 C 20.421875 25.121094 20.425781 24.878906 20.429688 24.570312 L 20.429688 20.953125 C 20.429688 20.292969 20.308594 19.765625 20.851562 19.566406 Z M 22.921875 12.707031 C 20.546875 12.898438 18.203125 13.585938 16.332031 14.867188 C 15.792969 15.234375 15.164062 15.726562 14.710938 16.164062 C 14.480469 16.390625 14.230469 16.652344 14.03125 16.921875 L 13.710938 17.339844 C 13.652344 17.414062 13.597656 17.46875 13.550781 17.53125 C 12.023438 19.648438 11.613281 22.203125 12.371094 24.785156 C 12.65625 25.753906 13.359375 27.011719 14.070312 27.792969 C 14.144531 27.875 14.164062 27.929688 14.230469 28.019531 L 15.136719 28.902344 C 15.507812 29.195312 15.363281 29.132812 15.761719 29.398438 C 15.949219 29.527344 16.023438 29.625 16.183594 29.710938 L 16.832031 30.117188 C 17.117188 30.308594 17.199219 30.363281 17.546875 30.527344 C 18.46875 30.957031 19.03125 31.25 20.195312 31.523438 C 20.746094 31.652344 22.246094 31.917969 22.566406 32.066406 C 22.710938 32.136719 22.886719 32.273438 22.957031 32.382812 C 23.226562 32.804688 22.96875 33.886719 22.894531 34.335938 C 22.824219 34.75 22.675781 35.328125 23.214844 35.351562 C 23.574219 35.367188 24.054688 35.136719 24.324219 34.992188 L 28.117188 32.609375 C 28.351562 32.460938 28.460938 32.339844 28.519531 32.308594 C 28.765625 32.175781 29.683594 31.519531 29.902344 31.320312 C 30.28125 30.96875 30.226562 31.050781 30.617188 30.757812 C 30.738281 30.664062 30.695312 30.636719 30.804688 30.5625 C 31.054688 30.390625 31.59375 29.96875 31.789062 29.753906 C 31.871094 29.667969 31.921875 29.648438 31.988281 29.566406 C 32.195312 29.3125 32.488281 29.128906 32.894531 28.652344 C 32.976562 28.554688 33.007812 28.5625 33.082031 28.484375 L 33.421875 28.089844 C 33.609375 27.804688 33.542969 27.917969 33.757812 27.6875 C 34.042969 27.375 34.234375 27.011719 34.359375 26.847656 C 34.625 26.5 34.980469 25.835938 35.148438 25.429688 C 35.445312 24.710938 35.695312 23.902344 35.757812 23.09375 C 35.886719 21.40625 35.507812 19.644531 34.738281 18.359375 L 34.339844 17.699219 C 33.992188 17.210938 33.59375 16.726562 33.175781 16.300781 C 30.613281 13.679688 26.527344 12.417969 22.921875 12.707031 Z M 22.921875 12.707031 "/>
</g>
</svg>
