<?xml version="1.0" encoding="UTF-8"?>
<svg xmlns="http://www.w3.org/2000/svg" xmlns:xlink="http://www.w3.org/1999/xlink" width="48" height="48" viewBox="0 0 48 48" version="1.1">
<g id="surface1">
<path style=" stroke:none;fill-rule:evenodd;fill:rgb(0%,49.411765%,73.333335%);fill-opacity:1;" d="M 24 48 C 37.253906 48 48 37.253906 48 24 C 48 10.746094 37.253906 0 24 0 C 10.746094 0 0 10.746094 0 24 C 0 37.253906 10.746094 48 24 48 Z M 24 48 "/>
<path style=" stroke:none;fill-rule:evenodd;fill:rgb(100%,100%,100%);fill-opacity:1;" d="M 39.332031 38 L 33.304688 38 L 33.304688 27.734375 C 33.304688 24.921875 32.238281 23.347656 30.007812 23.347656 C 27.585938 23.347656 26.320312 24.984375 26.320312 27.734375 L 26.320312 38 L 20.511719 38 L 20.511719 18.445312 L 26.320312 18.445312 L 26.320312 21.078125 C 26.320312 21.078125 28.066406 17.847656 32.214844 17.847656 C 36.363281 17.847656 39.332031 20.378906 39.332031 25.617188 Z M 13.582031 15.882812 C 11.601562 15.882812 10 14.269531 10 12.273438 C 10 10.28125 11.601562 8.667969 13.582031 8.667969 C 15.558594 8.667969 17.164062 10.28125 17.164062 12.273438 C 17.164062 14.269531 15.558594 15.882812 13.582031 15.882812 Z M 10.582031 38 L 16.640625 38 L 16.640625 18.445312 L 10.582031 18.445312 Z M 10.582031 38 "/>
</g>
</svg>
