<?xml version="1.0" encoding="UTF-8"?>
<svg xmlns="http://www.w3.org/2000/svg" xmlns:xlink="http://www.w3.org/1999/xlink" width="48" height="48" viewBox="0 0 48 48" version="1.1">
<g id="surface1">
<path style=" stroke:none;fill-rule:evenodd;fill:rgb(92.54902%,92.54902%,92.54902%);fill-opacity:1;" d="M 24 48 C 37.253906 48 48 37.253906 48 24 C 48 10.746094 37.253906 0 24 0 C 10.746094 0 0 10.746094 0 24 C 0 37.253906 10.746094 48 24 48 Z M 24 48 "/>
<path style=" stroke:none;fill-rule:evenodd;fill:rgb(0%,98.823529%,52.941179%);fill-opacity:1;" d="M 30.125 10.992188 C 29.644531 10.75 29.25 10.996094 29.25 11.535156 L 29.25 33.066406 L 38.03125 37.480469 C 38.996094 37.96875 39.78125 37.628906 39.78125 36.722656 L 39.78125 15.992188 C 39.78125 15.902344 39.730469 15.824219 39.65625 15.785156 L 30.125 10.992188 "/>
<path style=" stroke:none;fill-rule:evenodd;fill:rgb(0%,89.411765%,40.784314%);fill-opacity:1;" d="M 18.71875 27.769531 L 28.738281 11.390625 C 29.019531 10.929688 29.644531 10.75 30.125 10.992188 L 39.664062 15.789062 C 39.726562 15.820312 39.75 15.898438 39.714844 15.960938 L 29.25 33.066406 L 18.71875 27.769531 "/>
<path style=" stroke:none;fill-rule:evenodd;fill:rgb(0%,78.431374%,37.64706%);fill-opacity:1;" d="M 9.644531 11.285156 C 8.84375 10.882812 8.570312 11.179688 9.042969 11.949219 L 18.71875 27.769531 L 29.25 33.066406 L 18.742188 15.886719 C 18.726562 15.863281 18.703125 15.84375 18.679688 15.828125 L 9.644531 11.285156 "/>
<path style=" stroke:none;fill-rule:evenodd;fill:rgb(0%,67.450982%,40.784314%);fill-opacity:1;" d="M 18.71875 36.722656 C 18.71875 37.625 18.0625 38.03125 17.261719 37.628906 L 9.0625 33.503906 C 8.582031 33.261719 8.1875 32.621094 8.1875 32.082031 L 8.1875 11.863281 C 8.1875 11.140625 8.710938 10.816406 9.351562 11.136719 L 18.660156 15.820312 C 18.695312 15.835938 18.71875 15.875 18.71875 15.914062 L 18.71875 36.722656 "/>
</g>
</svg>
