<?xml version="1.0" encoding="UTF-8"?>
<svg xmlns="http://www.w3.org/2000/svg" xmlns:xlink="http://www.w3.org/1999/xlink" width="48" height="48" viewBox="0 0 48 48" version="1.1">
<g id="surface1">
<path style=" stroke:none;fill-rule:evenodd;fill:rgb(0%,49.803922%,100%);fill-opacity:1;" d="M 24 48 C 37.253906 48 48 37.253906 48 24 C 48 10.746094 37.253906 0 24 0 C 10.746094 0 0 10.746094 0 24 C 0 37.253906 10.746094 48 24 48 Z M 24 48 "/>
<path style=" stroke:none;fill-rule:evenodd;fill:rgb(100%,100%,100%);fill-opacity:1;" d="M 24 8 C 15.164062 8 8 14.632812 8 22.816406 C 8 27.476562 10.328125 31.636719 13.960938 34.351562 L 13.960938 40 L 19.410156 37.011719 C 20.863281 37.414062 22.40625 37.628906 24 37.628906 C 32.835938 37.628906 40 30.996094 40 22.816406 C 40 14.632812 32.835938 8 24 8 Z M 25.589844 27.949219 L 21.515625 23.605469 L 13.566406 27.949219 L 22.3125 18.667969 L 26.484375 23.011719 L 34.335938 18.667969 Z M 25.589844 27.949219 "/>
</g>
</svg>
