<?xml version="1.0" encoding="UTF-8"?>
<svg xmlns="http://www.w3.org/2000/svg" xmlns:xlink="http://www.w3.org/1999/xlink" width="48" height="48" viewBox="0 0 48 48" version="1.1">
<g id="surface1">
<path style=" stroke:none;fill-rule:evenodd;fill:rgb(0.784314%,1.176471%,1.176471%);fill-opacity:1;" d="M 24 48 C 37.253906 48 48 37.253906 48 24 C 48 10.746094 37.253906 0 24 0 C 10.746094 0 0 10.746094 0 24 C 0 37.253906 10.746094 48 24 48 Z M 24 48 "/>
<path style=" stroke:none;fill-rule:evenodd;fill:rgb(100%,100%,100%);fill-opacity:1;" d="M 27.285156 30.046875 C 27.285156 28.964844 28.011719 27.859375 28.570312 27.300781 C 29.863281 26.015625 31.867188 25.570312 33.367188 26.460938 C 33.863281 26.753906 34.121094 26.9375 34.515625 27.328125 C 35.90625 28.703125 35.777344 29.9375 35.777344 31.585938 C 35.777344 31.835938 35.652344 31.957031 35.40625 31.957031 L 27.65625 31.957031 C 27.410156 31.957031 27.285156 31.835938 27.285156 31.585938 Z M 18.792969 22.40625 L 18.792969 22.832031 C 18.792969 24.433594 20.375 26.015625 21.976562 26.015625 L 22.402344 26.015625 C 24.003906 26.015625 25.585938 24.433594 25.585938 22.832031 L 25.585938 22.40625 C 25.585938 20.804688 24.003906 19.222656 22.402344 19.222656 L 21.976562 19.222656 C 20.375 19.222656 18.792969 20.804688 18.792969 22.40625 Z M 18.792969 30.84375 C 18.792969 31.488281 18.679688 31.957031 19.164062 31.957031 L 25.214844 31.957031 C 25.699219 31.957031 25.585938 31.488281 25.585938 30.84375 C 25.585938 28.890625 24.3125 26.863281 22.402344 26.863281 L 21.976562 26.863281 C 20.074219 26.863281 18.792969 28.894531 18.792969 30.84375 Z M 12 24.105469 C 12 23.277344 12.636719 22.398438 13.414062 22.015625 C 14.371094 21.546875 15.609375 21.734375 16.367188 22.496094 C 16.976562 23.105469 17.09375 23.738281 17.09375 24.527344 C 17.09375 26.457031 14.367188 27.773438 12.726562 26.136719 C 12.121094 25.527344 12 24.894531 12 24.105469 Z M 12 30.152344 L 12 31.585938 C 12 31.835938 12.125 31.957031 12.371094 31.957031 L 16.722656 31.957031 C 16.972656 31.957031 17.09375 31.835938 17.09375 31.585938 C 17.09375 30.386719 17.253906 29.445312 16.339844 28.519531 C 15.621094 27.796875 15.304688 27.710938 14.335938 27.710938 C 13.132812 27.710938 12 29.167969 12 30.152344 Z M 27.285156 20.707031 C 27.285156 22.105469 27.648438 23.0625 28.519531 23.933594 C 30.171875 25.585938 32.886719 25.585938 34.542969 23.933594 C 36.199219 22.277344 36.199219 19.5625 34.542969 17.90625 C 32.890625 16.253906 30.175781 16.25 28.519531 17.90625 C 27.929688 18.5 27.285156 19.550781 27.285156 20.707031 Z M 27.285156 20.707031 "/>
</g>
</svg>
