<?xml version="1.0" encoding="UTF-8"?>
<svg xmlns="http://www.w3.org/2000/svg" xmlns:xlink="http://www.w3.org/1999/xlink" width="48" height="48" viewBox="0 0 48 48" version="1.1">
<g id="surface1">
<path style=" stroke:none;fill-rule:nonzero;fill:rgb(0%,18.82353%,52.941179%);fill-opacity:1;" d="M 24 48 C 37.257812 48 48 37.257812 48 24 C 48 10.742188 37.257812 0 24 0 C 10.742188 0 0 10.742188 0 24 C 0 37.257812 10.742188 48 24 48 "/>
<path style=" stroke:none;fill-rule:nonzero;fill:rgb(100%,100%,100%);fill-opacity:1;" d="M 35.992188 17.585938 C 35.933594 16.574219 35.671875 15.710938 35.257812 14.972656 C 34.058594 12.835938 31.601562 11.820312 29.371094 11.820312 C 29.371094 11.820312 21.617188 11.820312 19.660156 11.820312 C 17.699219 11.820312 17.195312 12.441406 16.882812 13.867188 C 16.632812 15.039062 13.507812 28.867188 12.402344 33.796875 C 12.160156 34.875 12.046875 35.53125 12.976562 35.53125 C 13.902344 35.53125 19.078125 35.53125 19.078125 35.53125 C 19.078125 35.53125 20.324219 29.859375 20.492188 29.089844 C 20.664062 28.3125 21.121094 27.683594 22.238281 27.683594 C 23.34375 27.683594 25.976562 27.675781 26.035156 27.675781 C 28.902344 27.628906 31.480469 26.558594 33.308594 24.65625 C 34.5 23.410156 35.382812 21.816406 35.804688 19.894531 C 35.960938 19.058594 36.027344 18.28125 35.992188 17.585938 Z M 29.15625 19.902344 C 28.96875 20.691406 28.519531 21.402344 27.929688 21.964844 C 27.710938 22.164062 27.476562 22.339844 27.226562 22.5 C 26.585938 22.902344 25.847656 23.148438 25.117188 23.148438 L 21.804688 23.148438 C 21.804688 23.148438 23.082031 17.679688 23.175781 17.277344 C 23.269531 16.875 23.363281 16.660156 23.832031 16.660156 C 24.300781 16.660156 26.785156 16.660156 26.785156 16.660156 C 27.382812 16.660156 27.898438 16.835938 28.320312 17.136719 C 29.101562 17.699219 29.484375 18.722656 29.15625 19.902344 Z M 29.15625 19.902344 "/>
</g>
</svg>
