<?xml version="1.0" encoding="UTF-8"?>
<svg xmlns="http://www.w3.org/2000/svg" xmlns:xlink="http://www.w3.org/1999/xlink" width="48" height="48" viewBox="0 0 48 48" version="1.1">
<g id="surface1">
<path style=" stroke:none;fill-rule:nonzero;fill:rgb(79.215688%,21.568628%,21.568628%);fill-opacity:1;" d="M 48 24 C 48 37.253906 37.253906 48 24 48 C 10.746094 48 0 37.253906 0 24 C 0 10.746094 10.746094 0 24 0 C 37.253906 0 48 10.746094 48 24 Z M 48 24 "/>
<path style=" stroke:none;fill-rule:nonzero;fill:rgb(100%,100%,100%);fill-opacity:1;" d="M 24 12.101562 C 17.398438 12.101562 12.101562 17.398438 12.101562 24 C 12.101562 28.898438 15 33 19.199219 34.898438 C 19.199219 34.101562 19.199219 33.101562 19.398438 32.199219 C 19.601562 31.199219 20.898438 25.699219 20.898438 25.699219 C 20.898438 25.699219 20.5 24.898438 20.5 23.800781 C 20.5 22 21.5 20.699219 22.800781 20.699219 C 23.898438 20.699219 24.398438 21.5 24.398438 22.5 C 24.398438 23.601562 23.699219 25.199219 23.398438 26.699219 C 23.101562 28 24.101562 29 25.300781 29 C 27.601562 29 29.101562 26.101562 29.101562 22.699219 C 29.101562 20.101562 27.300781 18.199219 24.199219 18.199219 C 20.601562 18.199219 18.398438 20.898438 18.398438 23.898438 C 18.398438 24.898438 18.699219 25.699219 19.199219 26.199219 C 19.398438 26.5 19.5 26.601562 19.398438 26.898438 C 19.300781 27.101562 19.199219 27.601562 19.199219 27.898438 C 19.101562 28.199219 18.898438 28.300781 18.601562 28.199219 C 16.898438 27.5 16.199219 25.699219 16.199219 23.699219 C 16.199219 20.300781 19 16.300781 24.699219 16.300781 C 29.199219 16.300781 32.199219 19.601562 32.199219 23.101562 C 32.199219 27.800781 29.601562 31.199219 25.800781 31.199219 C 24.5 31.199219 23.300781 30.5 22.898438 29.699219 C 22.898438 29.699219 22.199219 32.398438 22.101562 33 C 21.800781 33.898438 21.398438 34.800781 20.898438 35.5 C 22 35.800781 23.101562 36 24.300781 36 C 30.898438 36 36.199219 30.699219 36.199219 24.101562 C 35.898438 17.398438 30.601562 12.101562 24 12.101562 Z M 24 12.101562 "/>
</g>
</svg>
