<?xml version="1.0" encoding="UTF-8"?>
<svg xmlns="http://www.w3.org/2000/svg" xmlns:xlink="http://www.w3.org/1999/xlink" width="48" height="48" viewBox="0 0 48 48" version="1.1">
<g id="surface1">
<path style=" stroke:none;fill-rule:nonzero;fill:rgb(93.725491%,25.098041%,33.725491%);fill-opacity:1;" d="M 48 24 C 48 37.253906 37.253906 48 24 48 C 10.746094 48 0 37.253906 0 24 C 0 10.746094 10.746094 0 24 0 C 37.253906 0 48 10.746094 48 24 Z M 48 24 "/>
<path style=" stroke:none;fill-rule:nonzero;fill:rgb(100%,100%,100%);fill-opacity:1;" d="M 35.0625 11.945312 L 12.9375 11.945312 C 10.761719 11.945312 9 13.726562 9 15.910156 L 9 26.90625 C 9 27.113281 9.019531 27.308594 9.046875 27.507812 C 9.019531 27.796875 9 28.097656 9 28.398438 C 9 34.695312 15.710938 39.804688 24 39.804688 C 32.289062 39.804688 39 34.695312 39 28.398438 C 39 28.097656 38.980469 27.804688 38.953125 27.507812 C 38.980469 27.308594 39 27.113281 39 26.90625 L 39 15.917969 C 39 13.726562 37.238281 11.945312 35.0625 11.945312 Z M 33.195312 22.996094 L 25.453125 30.742188 C 25.058594 31.132812 24.542969 31.332031 24.027344 31.320312 C 23.492188 31.339844 22.960938 31.144531 22.546875 30.742188 L 14.804688 22.996094 C 14.023438 22.21875 14.023438 20.953125 14.804688 20.183594 C 15.582031 19.40625 16.835938 19.40625 17.617188 20.183594 L 24 26.570312 L 30.382812 20.183594 C 31.164062 19.40625 32.429688 19.40625 33.195312 20.183594 C 33.976562 20.960938 33.976562 22.21875 33.195312 22.996094 Z M 33.195312 22.996094 "/>
</g>
</svg>
