<?xml version="1.0" encoding="UTF-8"?>
<svg xmlns="http://www.w3.org/2000/svg" xmlns:xlink="http://www.w3.org/1999/xlink" width="48" height="48" viewBox="0 0 48 48" version="1.1">
<g id="surface1">
<path style=" stroke:none;fill-rule:evenodd;fill:rgb(100%,100%,100%);fill-opacity:1;" d="M 24 48 C 37.253906 48 48 37.253906 48 24 C 48 10.746094 37.253906 0 24 0 C 10.746094 0 0 10.746094 0 24 C 0 37.253906 10.746094 48 24 48 Z M 24 48 "/>
<path style=" stroke:none;fill-rule:evenodd;fill:rgb(87.058824%,32.941177%,14.509805%);fill-opacity:1;" d="M 26.933594 28.800781 L 20.132812 28.800781 L 20.132812 36 L 15.332031 36 L 15.332031 12 L 26.933594 12 C 31.574219 12 35.332031 15.761719 35.332031 20.398438 C 35.332031 25.039062 31.574219 28.800781 26.933594 28.800781 M 24 0 C 10.746094 0 0 10.746094 0 24 C 0 37.253906 10.746094 48 24 48 C 37.253906 48 48 37.253906 48 24 C 48 10.746094 37.253906 0 24 0 M 27.640625 16.667969 L 20.667969 16.667969 L 20.667969 24 L 27.640625 24 C 29.679688 24 31.332031 22.359375 31.332031 20.332031 C 31.332031 18.308594 29.679688 16.667969 27.640625 16.667969 "/>
</g>
</svg>
