<?xml version="1.0" encoding="UTF-8"?>
<svg xmlns="http://www.w3.org/2000/svg" xmlns:xlink="http://www.w3.org/1999/xlink" width="48" height="48" viewBox="0 0 48 48" version="1.1">
<g id="surface1">
<path style=" stroke:none;fill-rule:evenodd;fill:rgb(100%,34.117648%,0%);fill-opacity:1;" d="M 24 48 C 37.253906 48 48 37.253906 48 24 C 48 10.746094 37.253906 0 24 0 C 10.746094 0 0 10.746094 0 24 C 0 37.253906 10.746094 48 24 48 Z M 24 48 "/>
<path style=" stroke:none;fill-rule:evenodd;fill:rgb(100%,100%,100%);fill-opacity:1;" d="M 28.761719 28.21875 C 27.5625 28.21875 26.558594 27.257812 26.558594 26.070312 C 26.558594 24.886719 27.5625 23.894531 28.761719 23.894531 C 29.957031 23.894531 30.925781 24.886719 30.925781 26.070312 C 30.925781 27.257812 29.957031 28.21875 28.761719 28.21875 M 29.269531 32.382812 C 28.152344 33.484375 26.4375 34.023438 24.015625 34.023438 C 24.011719 34.023438 24.003906 34.019531 24 34.019531 C 23.992188 34.019531 23.988281 34.023438 23.980469 34.023438 C 21.5625 34.023438 19.84375 33.484375 18.730469 32.382812 C 18.390625 32.042969 18.390625 31.496094 18.730469 31.15625 C 19.074219 30.820312 19.625 30.820312 19.96875 31.15625 C 20.734375 31.917969 22.050781 32.289062 23.980469 32.289062 C 23.988281 32.289062 23.992188 32.289062 24 32.289062 C 24.003906 32.289062 24.011719 32.289062 24.015625 32.289062 C 25.949219 32.289062 27.261719 31.917969 28.03125 31.15625 C 28.375 30.820312 28.925781 30.820312 29.269531 31.15625 C 29.609375 31.496094 29.609375 32.046875 29.269531 32.382812 M 17.074219 26.070312 C 17.074219 24.886719 18.078125 23.894531 19.273438 23.894531 C 20.46875 23.894531 21.4375 24.886719 21.4375 26.070312 C 21.4375 27.257812 20.46875 28.21875 19.273438 28.21875 C 18.078125 28.21875 17.074219 27.257812 17.074219 26.070312 M 34.664062 12.398438 C 35.472656 12.398438 36.132812 13.050781 36.132812 13.851562 C 36.132812 14.65625 35.472656 15.308594 34.664062 15.308594 C 33.855469 15.308594 33.195312 14.65625 33.195312 13.851562 C 33.195312 13.050781 33.855469 12.398438 34.664062 12.398438 M 40 23.714844 C 40 21.613281 38.273438 19.902344 36.152344 19.902344 C 35.234375 19.902344 34.394531 20.222656 33.730469 20.757812 C 31.386719 19.296875 28.410156 18.417969 25.21875 18.230469 L 26.882812 13.019531 L 31.457031 14.085938 C 31.578125 15.734375 32.96875 17.042969 34.664062 17.042969 C 36.4375 17.042969 37.878906 15.609375 37.878906 13.851562 C 37.878906 12.097656 36.4375 10.667969 34.664062 10.667969 C 33.425781 10.667969 32.347656 11.367188 31.808594 12.386719 L 26.496094 11.148438 C 26.050781 11.042969 25.601562 11.296875 25.460938 11.730469 L 23.394531 18.199219 C 19.960938 18.285156 16.726562 19.167969 14.210938 20.710938 C 13.558594 20.207031 12.738281 19.902344 11.847656 19.902344 C 9.726562 19.902344 8 21.613281 8 23.714844 C 8 25.011719 8.660156 26.160156 9.664062 26.847656 C 9.621094 27.152344 9.601562 27.457031 9.601562 27.761719 C 9.601562 30.390625 11.140625 32.832031 13.941406 34.644531 C 16.621094 36.378906 20.171875 37.332031 23.933594 37.332031 C 27.699219 37.332031 31.246094 36.378906 33.929688 34.644531 C 36.726562 32.832031 38.269531 30.390625 38.269531 27.761719 C 38.269531 27.484375 38.25 27.203125 38.214844 26.929688 C 39.285156 26.25 40 25.0625 40 23.714844 "/>
</g>
</svg>
