<?xml version="1.0" encoding="UTF-8"?>
<svg xmlns="http://www.w3.org/2000/svg" xmlns:xlink="http://www.w3.org/1999/xlink" width="48" height="48" viewBox="0 0 48 48" version="1.1">
<g id="surface1">
<path style=" stroke:none;fill-rule:evenodd;fill:rgb(1.176471%,67.450982%,92.156863%);fill-opacity:1;" d="M 24 48 C 37.253906 48 48 37.253906 48 24 C 48 10.746094 37.253906 0 24 0 C 10.746094 0 0 10.746094 0 24 C 0 37.253906 10.746094 48 24 48 Z M 24 48 "/>
<path style=" stroke:none;fill-rule:evenodd;fill:rgb(100%,100%,100%);fill-opacity:1;" d="M 24.136719 14.242188 C 28.550781 14.503906 31.136719 16.453125 31.386719 18.273438 C 31.511719 19.464844 30.722656 20.390625 29.355469 20.390625 C 27.359375 20.390625 27.15625 17.714844 23.71875 17.714844 C 22.164062 17.714844 20.855469 18.363281 20.855469 19.769531 C 20.855469 22.703125 31.875 21 31.875 27.464844 C 31.875 31.1875 28.902344 33.628906 24.472656 33.628906 C 20.574219 33.628906 16.65625 31.855469 16.675781 28.800781 C 16.683594 27.878906 17.367188 27.03125 18.277344 27.03125 C 20.574219 27.03125 20.550781 30.457031 24.207031 30.457031 C 26.773438 30.457031 27.648438 29.050781 27.648438 28.074219 C 27.648438 24.535156 16.566406 26.703125 16.566406 20.050781 C 16.566406 16.453125 19.511719 13.96875 24.136719 14.242188 M 10.300781 24.011719 C 10.300781 31.601562 16.429688 37.757812 23.988281 37.757812 C 24.867188 37.757812 25.722656 37.671875 26.554688 37.515625 C 27.757812 38.246094 29.167969 38.667969 30.679688 38.667969 C 35.089844 38.664062 38.667969 35.074219 38.667969 30.640625 C 38.667969 29.085938 38.226562 27.640625 37.464844 26.410156 C 37.601562 25.628906 37.675781 24.828125 37.675781 24.011719 C 37.675781 16.417969 31.546875 10.261719 23.988281 10.261719 C 23.128906 10.261719 22.285156 10.347656 21.46875 10.5 C 20.261719 9.757812 18.839844 9.332031 17.320312 9.332031 C 12.910156 9.332031 9.332031 12.925781 9.332031 17.355469 C 9.332031 18.902344 9.769531 20.34375 10.523438 21.570312 C 10.378906 22.363281 10.300781 23.175781 10.300781 24.011719 "/>
</g>
</svg>
