<?xml version="1.0" encoding="UTF-8"?>
<svg xmlns="http://www.w3.org/2000/svg" xmlns:xlink="http://www.w3.org/1999/xlink" width="48" height="48" viewBox="0 0 48 48" version="1.1">
<g id="surface1">
<path style=" stroke:none;fill-rule:evenodd;fill:rgb(46.666667%,83.137256%,71.372551%);fill-opacity:1;" d="M 24 48 C 37.253906 48 48 37.253906 48 24 C 48 10.746094 37.253906 0 24 0 C 10.746094 0 0 10.746094 0 24 C 0 37.253906 10.746094 48 24 48 Z M 24 48 "/>
<path style=" stroke:none;fill-rule:evenodd;fill:rgb(100%,100%,100%);fill-opacity:1;" d="M 38.660156 19.601562 C 35.363281 8.605469 30.597656 6.039062 19.601562 9.339844 C 8.605469 12.636719 6.039062 17.402344 9.339844 28.398438 C 12.636719 39.394531 17.402344 41.960938 28.398438 38.660156 C 39.394531 35.363281 41.960938 30.597656 38.660156 19.601562 M 33.097656 26.738281 L 31.027344 27.433594 L 31.746094 29.578125 C 32.035156 30.449219 31.566406 31.386719 30.699219 31.679688 C 30.507812 31.742188 30.316406 31.769531 30.128906 31.765625 C 29.453125 31.746094 28.828125 31.3125 28.597656 30.632812 L 27.878906 28.488281 L 23.605469 29.917969 L 24.324219 32.066406 C 24.613281 32.933594 24.144531 33.875 23.277344 34.164062 C 23.089844 34.226562 22.894531 34.253906 22.707031 34.25 C 22.03125 34.234375 21.40625 33.796875 21.179688 33.117188 L 20.460938 30.972656 L 18.386719 31.667969 C 18.199219 31.730469 18.003906 31.757812 17.816406 31.753906 C 17.140625 31.734375 16.515625 31.300781 16.285156 30.621094 C 15.996094 29.753906 16.464844 28.8125 17.332031 28.523438 L 19.40625 27.828125 L 18.027344 23.710938 L 15.953125 24.40625 C 15.765625 24.46875 15.574219 24.496094 15.382812 24.492188 C 14.707031 24.472656 14.082031 24.039062 13.855469 23.359375 C 13.5625 22.492188 14.03125 21.550781 14.902344 21.261719 L 16.972656 20.566406 L 16.253906 18.421875 C 15.964844 17.550781 16.433594 16.613281 17.300781 16.320312 C 18.171875 16.03125 19.109375 16.5 19.402344 17.367188 L 20.121094 19.511719 L 24.394531 18.082031 L 23.675781 15.9375 C 23.386719 15.066406 23.855469 14.125 24.722656 13.835938 C 25.589844 13.542969 26.53125 14.011719 26.824219 14.882812 L 27.539062 17.027344 L 29.613281 16.332031 C 30.484375 16.042969 31.421875 16.511719 31.714844 17.378906 C 32.003906 18.246094 31.535156 19.1875 30.667969 19.480469 L 28.59375 20.171875 L 29.972656 24.289062 L 32.046875 23.59375 C 32.914062 23.304688 33.855469 23.773438 34.144531 24.640625 C 34.4375 25.507812 33.96875 26.449219 33.097656 26.738281 Z M 21.171875 22.660156 L 22.550781 26.773438 L 26.828125 25.339844 L 25.449219 21.226562 Z M 21.171875 22.660156 "/>
</g>
</svg>
