<?xml version="1.0" encoding="UTF-8"?>
<svg xmlns="http://www.w3.org/2000/svg" xmlns:xlink="http://www.w3.org/1999/xlink" width="48" height="48" viewBox="0 0 48 48" version="1.1">
<g id="surface1">
<path style=" stroke:none;fill-rule:nonzero;fill:rgb(5.098039%,65.882355%,66.666669%);fill-opacity:1;" d="M 48 24 C 48 37.253906 37.253906 48 24 48 C 10.746094 48 0 37.253906 0 24 C 0 10.746094 10.746094 0 24 0 C 37.253906 0 48 10.746094 48 24 Z M 48 24 "/>
<path style=" stroke:none;fill-rule:nonzero;fill:rgb(100%,100%,100%);fill-opacity:1;" d="M 23.601562 21.601562 C 23.601562 23.300781 22.101562 24.699219 20.300781 24.699219 C 18.5 24.699219 17 23.300781 17 21.601562 C 17 19.898438 18.5 18.5 20.300781 18.5 C 22.199219 18.5 23.601562 19.898438 23.601562 21.601562 "/>
<path style=" stroke:none;fill-rule:nonzero;fill:rgb(100%,100%,100%);fill-opacity:1;" d="M 24.699219 21.601562 C 24.699219 23.300781 26.199219 24.699219 28 24.699219 C 29.800781 24.699219 31.300781 23.300781 31.300781 21.601562 C 31.300781 19.898438 29.800781 18.5 28 18.5 C 26.199219 18.5 24.699219 19.898438 24.699219 21.601562 "/>
<path style=" stroke:none;fill-rule:nonzero;fill:rgb(100%,100%,100%);fill-opacity:1;" d="M 13.398438 25.398438 L 13.398438 14.199219 C 13.398438 12.300781 13.898438 11.800781 15.601562 11.800781 L 32.601562 11.800781 C 34.199219 11.800781 34.800781 12.5 34.800781 14.199219 L 34.800781 25.101562 L 36.101562 24.199219 L 36.101562 13 C 36.101562 11.5 35 10.300781 33.601562 10.300781 L 14.398438 10.300781 C 13 10.300781 11.898438 11.5 11.898438 13 L 11.898438 24.5 L 13.398438 25.398438 "/>
<path style=" stroke:none;fill-rule:nonzero;fill:rgb(100%,100%,100%);fill-opacity:1;" d="M 24.398438 27.5 C 24.398438 26.5 24.800781 25.898438 26.199219 26 C 28.199219 26.101562 32 26.5 36.398438 23.398438 C 37.199219 22.800781 37.800781 23.601562 37.300781 24.300781 C 36.300781 25.5 34.5 27 31.601562 28.101562 C 34.601562 38.300781 24.300781 40 24.398438 34.699219 C 24.398438 34.898438 24.398438 27.5 24.398438 27.5 "/>
<path style=" stroke:none;fill-rule:nonzero;fill:rgb(100%,100%,100%);fill-opacity:1;" d="M 23.601562 27.5 C 23.601562 26.5 23.199219 25.898438 21.800781 26 C 19.800781 26.101562 16 26.5 11.601562 23.398438 C 10.800781 22.800781 10.199219 23.601562 10.699219 24.300781 C 11.699219 25.5 13.5 27 16.398438 28.101562 C 13.398438 38.300781 23.699219 40 23.601562 34.699219 C 23.601562 34.898438 23.601562 27.5 23.601562 27.5 "/>
<path style=" stroke:none;fill-rule:nonzero;fill:rgb(100%,100%,100%);fill-opacity:1;" d="M 28.601562 26.800781 C 27.199219 28.800781 25.5 28.398438 23.5 26.5 C 21.398438 24.601562 22.800781 29.398438 23.699219 29.601562 C 24.898438 29.898438 25.398438 30.199219 27.101562 29.800781 C 28.699219 29.398438 29.5 28.300781 29.800781 27.5 C 30.199219 26.101562 29.300781 25.699219 28.601562 26.800781 "/>
</g>
</svg>
