<?xml version="1.0" encoding="UTF-8"?>
<svg xmlns="http://www.w3.org/2000/svg" xmlns:xlink="http://www.w3.org/1999/xlink" width="48" height="48" viewBox="0 0 48 48" version="1.1">
<g id="surface1">
<path style=" stroke:none;fill-rule:evenodd;fill:rgb(100%,89.411765%,0%);fill-opacity:1;" d="M 24 48 C 37.253906 48 48 37.253906 48 24 C 48 10.746094 37.253906 0 24 0 C 10.746094 0 0 10.746094 0 24 C 0 37.253906 10.746094 48 24 48 Z M 24 48 "/>
<path style=" stroke:none;fill-rule:evenodd;fill:rgb(100%,100%,100%);fill-opacity:1;" d="M 24.308594 9.332031 L 24.304688 9.332031 C 24.277344 9.332031 24.253906 9.332031 24.226562 9.332031 C 24.03125 9.335938 23.707031 9.339844 23.679688 9.339844 C 22.96875 9.339844 21.546875 9.4375 20.019531 10.109375 C 19.148438 10.496094 18.363281 11.015625 17.6875 11.652344 C 16.878906 12.417969 16.222656 13.355469 15.734375 14.449219 C 15.019531 16.046875 15.191406 18.742188 15.328125 20.90625 C 15.34375 21.140625 15.355469 21.382812 15.371094 21.617188 C 15.265625 21.664062 15.097656 21.714844 14.847656 21.714844 C 14.441406 21.714844 13.960938 21.589844 13.421875 21.335938 C 13.261719 21.261719 13.078125 21.222656 12.878906 21.222656 C 12.554688 21.222656 12.214844 21.316406 11.917969 21.492188 C 11.546875 21.707031 11.308594 22.015625 11.242188 22.355469 C 11.199219 22.582031 11.203125 23.027344 11.699219 23.480469 C 11.972656 23.726562 12.371094 23.957031 12.890625 24.160156 C 13.027344 24.214844 13.1875 24.265625 13.359375 24.320312 C 13.949219 24.507812 14.847656 24.792969 15.082031 25.339844 C 15.199219 25.617188 15.148438 25.984375 14.929688 26.425781 C 14.925781 26.4375 14.917969 26.449219 14.914062 26.464844 C 14.859375 26.589844 14.347656 27.742188 13.304688 28.957031 C 12.707031 29.648438 12.054688 30.222656 11.359375 30.671875 C 10.507812 31.21875 9.589844 31.578125 8.628906 31.734375 C 8.25 31.796875 7.980469 32.132812 8 32.515625 C 8.007812 32.625 8.035156 32.734375 8.078125 32.839844 C 8.078125 32.839844 8.078125 32.839844 8.078125 32.84375 C 8.230469 33.199219 8.585938 33.5 9.164062 33.769531 C 9.867188 34.09375 10.917969 34.367188 12.292969 34.582031 C 12.359375 34.714844 12.433594 35.046875 12.484375 35.273438 C 12.535156 35.511719 12.589844 35.757812 12.667969 36.023438 C 12.75 36.304688 12.96875 36.644531 13.523438 36.644531 C 13.738281 36.644531 13.980469 36.597656 14.261719 36.542969 C 14.671875 36.464844 15.238281 36.355469 15.941406 36.355469 C 16.328125 36.355469 16.734375 36.386719 17.140625 36.457031 C 17.925781 36.585938 18.601562 37.0625 19.382812 37.613281 C 20.527344 38.421875 21.824219 39.332031 23.804688 39.332031 C 23.855469 39.332031 23.910156 39.332031 23.964844 39.328125 C 24.03125 39.332031 24.113281 39.332031 24.195312 39.332031 C 26.175781 39.332031 27.472656 38.417969 28.617188 37.613281 C 29.398438 37.0625 30.074219 36.585938 30.859375 36.457031 C 31.265625 36.386719 31.671875 36.355469 32.058594 36.355469 C 32.730469 36.355469 33.265625 36.4375 33.738281 36.53125 C 34.050781 36.59375 34.289062 36.621094 34.476562 36.621094 L 34.511719 36.621094 C 34.917969 36.621094 35.21875 36.398438 35.332031 36.007812 C 35.410156 35.75 35.464844 35.511719 35.515625 35.265625 C 35.5625 35.054688 35.636719 34.714844 35.707031 34.582031 C 37.082031 34.367188 38.132812 34.09375 38.835938 33.765625 C 39.410156 33.5 39.765625 33.199219 39.917969 32.84375 C 39.964844 32.734375 39.992188 32.625 40 32.515625 C 40.019531 32.132812 39.75 31.796875 39.371094 31.734375 C 35.09375 31.03125 33.167969 26.648438 33.085938 26.460938 C 33.082031 26.449219 33.074219 26.4375 33.070312 26.425781 C 32.851562 25.984375 32.800781 25.617188 32.917969 25.339844 C 33.152344 24.789062 34.050781 24.507812 34.640625 24.320312 C 34.8125 24.265625 34.976562 24.214844 35.109375 24.160156 C 35.695312 23.929688 36.109375 23.683594 36.386719 23.398438 C 36.714844 23.0625 36.777344 22.738281 36.773438 22.527344 C 36.765625 22.011719 36.371094 21.558594 35.746094 21.335938 C 35.535156 21.25 35.296875 21.203125 35.050781 21.203125 C 34.882812 21.203125 34.636719 21.226562 34.402344 21.335938 C 33.902344 21.566406 33.453125 21.695312 33.070312 21.714844 C 32.867188 21.703125 32.722656 21.660156 32.628906 21.617188 C 32.640625 21.417969 32.652344 21.210938 32.667969 20.996094 L 32.671875 20.90625 C 32.808594 18.742188 32.980469 16.046875 32.265625 14.445312 C 31.773438 13.347656 31.117188 12.40625 30.308594 11.644531 C 29.628906 11.003906 28.839844 10.484375 27.964844 10.101562 C 26.441406 9.433594 25.019531 9.332031 24.308594 9.332031 "/>
</g>
</svg>
