<?xml version="1.0" encoding="UTF-8"?>
<svg xmlns="http://www.w3.org/2000/svg" xmlns:xlink="http://www.w3.org/1999/xlink" width="48" height="48" viewBox="0 0 48 48" version="1.1">
<g id="surface1">
<path style=" stroke:none;fill-rule:evenodd;fill:rgb(100%,26.274511%,0%);fill-opacity:1;" d="M 24 48 C 37.253906 48 48 37.253906 48 24 C 48 10.746094 37.253906 0 24 0 C 10.746094 0 0 10.746094 0 24 C 0 37.253906 10.746094 48 24 48 Z M 24 48 "/>
<path style=" stroke:none;fill-rule:evenodd;fill:rgb(100%,100%,100%);fill-opacity:1;" d="M 8 29.433594 C 8 29.835938 8.144531 30.140625 8.433594 30.347656 C 8.71875 30.554688 9.027344 30.628906 9.355469 30.566406 C 9.664062 30.507812 9.878906 30.394531 10.003906 30.234375 C 10.125 30.074219 10.1875 29.808594 10.1875 29.433594 L 10.1875 25.054688 C 10.1875 24.742188 10.082031 24.480469 9.867188 24.261719 C 9.65625 24.046875 9.394531 23.9375 9.085938 23.9375 C 8.789062 23.9375 8.535156 24.046875 8.320312 24.261719 C 8.105469 24.480469 8 24.742188 8 25.054688 Z M 11.425781 31.308594 C 11.425781 31.597656 11.527344 31.820312 11.730469 31.964844 C 11.933594 32.109375 12.195312 32.183594 12.511719 32.183594 C 12.839844 32.183594 13.105469 32.109375 13.308594 31.964844 C 13.511719 31.820312 13.613281 31.597656 13.613281 31.308594 L 13.613281 21.097656 C 13.613281 20.796875 13.507812 20.539062 13.292969 20.320312 C 13.082031 20.105469 12.820312 19.996094 12.511719 19.996094 C 12.214844 19.996094 11.957031 20.105469 11.746094 20.320312 C 11.53125 20.539062 11.425781 20.796875 11.425781 21.097656 Z M 14.835938 31.789062 C 14.835938 32.082031 14.9375 32.300781 15.148438 32.449219 C 15.355469 32.59375 15.625 32.667969 15.953125 32.667969 C 16.269531 32.667969 16.53125 32.59375 16.734375 32.449219 C 16.9375 32.300781 17.039062 32.082031 17.039062 31.789062 L 17.039062 22.472656 C 17.039062 22.160156 16.933594 21.894531 16.71875 21.671875 C 16.503906 21.453125 16.25 21.339844 15.953125 21.339844 C 15.644531 21.339844 15.378906 21.453125 15.164062 21.671875 C 14.945312 21.894531 14.835938 22.160156 14.835938 22.472656 Z M 18.257812 31.835938 C 18.257812 32.390625 18.625 32.667969 19.363281 32.667969 C 20.097656 32.667969 20.464844 32.390625 20.464844 31.835938 L 20.464844 16.734375 C 20.464844 15.890625 20.210938 15.410156 19.703125 15.300781 C 19.375 15.21875 19.054688 15.316406 18.734375 15.585938 C 18.417969 15.859375 18.257812 16.242188 18.257812 16.734375 Z M 21.742188 32.273438 L 21.742188 15.84375 C 21.742188 15.320312 21.898438 15.007812 22.207031 14.910156 C 22.871094 14.746094 23.53125 14.667969 24.1875 14.667969 C 25.703125 14.667969 27.121094 15.027344 28.429688 15.753906 C 29.742188 16.480469 30.800781 17.46875 31.609375 18.722656 C 32.417969 19.972656 32.886719 21.355469 33.015625 22.867188 C 33.621094 22.605469 34.265625 22.472656 34.953125 22.472656 C 36.34375 22.472656 37.53125 22.972656 38.519531 23.96875 C 39.507812 24.964844 40 26.164062 40 27.5625 C 40 28.972656 39.507812 30.175781 38.519531 31.171875 C 37.53125 32.167969 36.347656 32.667969 34.96875 32.667969 L 22.011719 32.652344 C 21.921875 32.621094 21.855469 32.566406 21.8125 32.484375 C 21.765625 32.40625 21.742188 32.335938 21.742188 32.273438 Z M 21.742188 32.273438 "/>
</g>
</svg>
