<?xml version="1.0" encoding="UTF-8"?>
<svg xmlns="http://www.w3.org/2000/svg" xmlns:xlink="http://www.w3.org/1999/xlink" width="48" height="48" viewBox="0 0 48 48" version="1.1">
<g id="surface1">
<path style=" stroke:none;fill-rule:evenodd;fill:rgb(6.27451%,73.725492%,29.803923%);fill-opacity:1;" d="M 24 0 C 10.800781 0 0 10.800781 0 24 C 0 37.199219 10.800781 48 24 48 C 37.199219 48 48 37.199219 48 24 C 48 10.800781 37.320312 0 24 0 M 35.039062 34.679688 C 34.558594 35.398438 33.71875 35.640625 33 35.160156 C 27.359375 31.679688 20.28125 30.960938 11.878906 32.878906 C 11.039062 33.121094 10.320312 32.519531 10.078125 31.800781 C 9.839844 30.960938 10.441406 30.238281 11.160156 30 C 20.28125 27.960938 28.199219 28.800781 34.441406 32.640625 C 35.28125 33 35.398438 33.960938 35.039062 34.679688 M 37.921875 28.078125 C 37.320312 28.921875 36.238281 29.28125 35.398438 28.679688 C 28.921875 24.71875 19.078125 23.519531 11.519531 25.921875 C 10.558594 26.160156 9.480469 25.679688 9.238281 24.71875 C 9 23.761719 9.480469 22.679688 10.441406 22.441406 C 19.199219 19.800781 30 21.121094 37.441406 25.679688 C 38.160156 26.039062 38.519531 27.238281 37.921875 28.078125 M 38.160156 21.359375 C 30.480469 16.800781 17.640625 16.320312 10.320312 18.601562 C 9.121094 18.960938 7.921875 18.238281 7.558594 17.160156 C 7.199219 15.960938 7.921875 14.761719 9 14.398438 C 17.519531 11.878906 31.558594 12.359375 40.441406 17.640625 C 41.519531 18.238281 41.878906 19.679688 41.28125 20.761719 C 40.679688 21.601562 39.238281 21.960938 38.160156 21.359375 "/>
</g>
</svg>
