<?xml version="1.0" encoding="UTF-8"?>
<svg xmlns="http://www.w3.org/2000/svg" xmlns:xlink="http://www.w3.org/1999/xlink" width="48" height="48" viewBox="0 0 48 48" version="1.1">
<g id="surface1">
<path style=" stroke:none;fill-rule:evenodd;fill:rgb(100%,50.588238%,5.882353%);fill-opacity:1;" d="M 24 48 C 37.253906 48 48 37.253906 48 24 C 48 10.746094 37.253906 0 24 0 C 10.746094 0 0 10.746094 0 24 C 0 37.253906 10.746094 48 24 48 Z M 24 48 "/>
<path style=" stroke:none;fill-rule:evenodd;fill:rgb(100%,100%,100%);fill-opacity:1;" d="M 28.058594 35.726562 L 15.316406 35.734375 L 15.316406 33.035156 L 28.054688 33.03125 Z M 36.667969 20.445312 L 34.488281 8 L 31.804688 8.460938 L 33.984375 20.910156 Z M 28.363281 29.570312 L 15.675781 28.410156 L 15.425781 31.097656 L 28.113281 32.257812 Z M 29.199219 26.046875 L 16.898438 22.769531 L 16.191406 25.375 L 28.496094 28.65625 Z M 30.808594 22.960938 L 19.832031 16.542969 L 18.449219 18.867188 L 29.425781 25.285156 Z M 33.496094 21.074219 L 31.25 22.59375 L 24.070312 12.15625 L 26.320312 10.632812 Z M 30.222656 26.851562 L 32.386719 26.851562 L 32.386719 40 L 11.332031 40 L 11.332031 26.851562 L 13.511719 26.851562 L 13.511719 37.882812 L 30.222656 37.882812 Z M 30.222656 26.851562 "/>
</g>
</svg>
