<?xml version="1.0" encoding="UTF-8"?>
<svg xmlns="http://www.w3.org/2000/svg" xmlns:xlink="http://www.w3.org/1999/xlink" width="48" height="48" viewBox="0 0 48 48" version="1.1">
<g id="surface1">
<path style=" stroke:none;fill-rule:evenodd;fill:rgb(93.333334%,27.450982%,13.725491%);fill-opacity:1;" d="M 24 48 C 37.253906 48 48 37.253906 48 24 C 48 10.746094 37.253906 0 24 0 C 10.746094 0 0 10.746094 0 24 C 0 37.253906 10.746094 48 24 48 Z M 24 48 "/>
<path style=" stroke:none;fill-rule:evenodd;fill:rgb(100%,100%,100%);fill-opacity:1;" d="M 35.785156 27.511719 L 35.785156 24.214844 L 31.714844 24.214844 L 31.714844 27.621094 C 31.714844 28.316406 31.152344 28.882812 30.457031 28.882812 C 29.761719 28.882812 29.195312 28.316406 29.195312 27.621094 L 29.195312 24.28125 L 26.71875 25.117188 L 25.148438 24.246094 L 25.148438 27.558594 C 25.175781 30.472656 27.546875 32.828125 30.46875 32.828125 C 33.402344 32.828125 35.785156 30.449219 35.785156 27.511719 M 23.890625 18.746094 C 23.195312 18.746094 22.632812 19.308594 22.632812 20.003906 L 22.632812 27.589844 C 22.59375 30.488281 20.226562 32.828125 17.316406 32.828125 C 14.378906 32.828125 12 30.449219 12 27.511719 L 12 24.214844 L 16.070312 24.214844 L 16.070312 27.46875 C 16.070312 28.164062 16.632812 28.726562 17.328125 28.726562 C 18.023438 28.726562 18.585938 28.164062 18.585938 27.46875 L 18.585938 19.789062 C 18.585938 16.777344 21.019531 14.667969 23.890625 14.667969 C 26.773438 14.667969 29.195312 16.921875 29.195312 19.820312 L 29.195312 21.503906 L 26.714844 22.339844 L 25.148438 21.46875 L 25.148438 20.003906 C 25.148438 19.308594 24.585938 18.746094 23.890625 18.746094 "/>
</g>
</svg>
