<?xml version="1.0" encoding="UTF-8"?>
<svg xmlns="http://www.w3.org/2000/svg" xmlns:xlink="http://www.w3.org/1999/xlink" width="48" height="48" viewBox="0 0 48 48" version="1.1">
<defs>
<linearGradient id="linear0" gradientUnits="userSpaceOnUse" x1="256" y1="0" x2="256" y2="510.132202" gradientTransform="matrix(0.09375,0,0,0.09375,0,0)">
<stop offset="0" style="stop-color:rgb(25.490198%,73.725492%,90.588236%);stop-opacity:1;"/>
<stop offset="1" style="stop-color:rgb(13.333334%,65.098041%,86.274511%);stop-opacity:1;"/>
</linearGradient>
</defs>
<g id="surface1">
<path style=" stroke:none;fill-rule:nonzero;fill:url(#linear0);" d="M 48 24 C 48 37.253906 37.253906 48 24 48 C 10.746094 48 0 37.253906 0 24 C 0 10.746094 10.746094 0 24 0 C 37.253906 0 48 10.746094 48 24 Z M 48 24 "/>
<path style=" stroke:none;fill-rule:nonzero;fill:rgb(100%,100%,100%);fill-opacity:1;" d="M 35.679688 13.808594 L 31.398438 35.417969 C 31.398438 35.417969 30.796875 36.917969 29.148438 36.195312 L 19.257812 28.613281 L 15.65625 26.878906 L 9.601562 24.84375 C 9.601562 24.84375 8.671875 24.515625 8.578125 23.792969 C 8.484375 23.070312 9.628906 22.6875 9.628906 22.6875 L 33.703125 13.246094 C 33.703125 13.238281 35.679688 12.367188 35.679688 13.808594 Z M 35.679688 13.808594 "/>
<path style=" stroke:none;fill-rule:nonzero;fill:rgb(82.352942%,89.411765%,94.117647%);fill-opacity:1;" d="M 18.488281 35.175781 C 18.488281 35.175781 18.195312 35.148438 17.839844 34.011719 C 17.484375 32.878906 15.65625 26.878906 15.65625 26.878906 L 30.195312 17.644531 C 30.195312 17.644531 31.039062 17.136719 31.003906 17.644531 C 31.003906 17.644531 31.152344 17.738281 30.703125 18.148438 C 30.253906 18.570312 19.285156 28.433594 19.285156 28.433594 "/>
<path style=" stroke:none;fill-rule:nonzero;fill:rgb(70.980394%,81.176472%,89.411765%);fill-opacity:1;" d="M 23.042969 31.519531 L 19.132812 35.089844 C 19.132812 35.089844 18.824219 35.324219 18.496094 35.175781 L 19.246094 28.546875 "/>
</g>
</svg>
