<?xml version="1.0" encoding="UTF-8"?>
<svg xmlns="http://www.w3.org/2000/svg" xmlns:xlink="http://www.w3.org/1999/xlink" width="48" height="48" viewBox="0 0 48 48" version="1.1">
<defs>
<linearGradient id="linear0" gradientUnits="userSpaceOnUse" x1="-1.347" y1="513.346985" x2="510.699005" y2="1.301" gradientTransform="matrix(0.09375,0,0,0.09375,0,0)">
<stop offset="0" style="stop-color:rgb(6.666667%,6.666667%,6.666667%);stop-opacity:1;"/>
<stop offset="1" style="stop-color:rgb(19.607843%,19.607843%,19.607843%);stop-opacity:1;"/>
</linearGradient>
<linearGradient id="linear1" gradientUnits="userSpaceOnUse" x1="153.059998" y1="376.96701" x2="368.112" y2="161.914001" gradientTransform="matrix(0.09375,0,0,0.09375,0,0)">
<stop offset="0" style="stop-color:rgb(70.980394%,1.960784%,23.529412%);stop-opacity:1;"/>
<stop offset="0.233" style="stop-color:rgb(78.823531%,1.568628%,25.490198%);stop-opacity:1;"/>
<stop offset="0.737" style="stop-color:rgb(94.117647%,0.392157%,29.411766%);stop-opacity:1;"/>
<stop offset="1" style="stop-color:rgb(100%,0%,30.980393%);stop-opacity:1;"/>
</linearGradient>
<linearGradient id="linear2" gradientUnits="userSpaceOnUse" x1="136.192001" y1="366.084015" x2="362.721985" y2="139.554993" gradientTransform="matrix(0.09375,0,0,0.09375,0,0)">
<stop offset="0" style="stop-color:rgb(0%,69.803923%,78.823531%);stop-opacity:1;"/>
<stop offset="0.283" style="stop-color:rgb(0%,78.431374%,83.137256%);stop-opacity:1;"/>
<stop offset="0.741" style="stop-color:rgb(0%,90.196079%,89.411765%);stop-opacity:1;"/>
<stop offset="1" style="stop-color:rgb(0%,94.509804%,91.764706%);stop-opacity:1;"/>
</linearGradient>
<linearGradient id="linear3" gradientUnits="userSpaceOnUse" x1="9.279" y1="506.872986" x2="510.70401" y2="5.448" gradientTransform="matrix(0.09375,0,0,0.09375,0,0)">
<stop offset="0" style="stop-color:rgb(86.666667%,89.019608%,89.411765%);stop-opacity:1;"/>
<stop offset="1" style="stop-color:rgb(98.823529%,96.862745%,96.862745%);stop-opacity:1;"/>
</linearGradient>
</defs>
<g id="surface1">
<path style=" stroke:none;fill-rule:nonzero;fill:url(#linear0);" d="M 24 0 C 10.746094 0 0 10.746094 0 24 C 0 37.253906 10.746094 48 24 48 C 37.253906 48 48 37.253906 48 24 C 48 10.746094 37.253906 0 24 0 Z M 24 0 "/>
<path style=" stroke:none;fill-rule:nonzero;fill:url(#linear1);" d="M 36.910156 17.582031 C 33.164062 17.582031 30.128906 14.542969 30.128906 10.796875 L 25.28125 10.796875 L 25.28125 29.777344 C 25.277344 31.550781 24.140625 33.125 22.457031 33.683594 C 20.773438 34.242188 18.917969 33.660156 17.859375 32.238281 C 16.796875 30.816406 16.761719 28.875 17.777344 27.417969 C 18.789062 25.960938 20.621094 25.316406 22.324219 25.816406 L 22.324219 21.105469 C 18.710938 20.621094 15.175781 22.421875 13.449219 25.632812 C 11.722656 28.84375 12.167969 32.789062 14.570312 35.53125 C 16.96875 38.277344 20.816406 39.246094 24.230469 37.964844 C 27.640625 36.683594 29.902344 33.421875 29.902344 29.777344 L 30.042969 20.183594 C 32.035156 21.644531 34.441406 22.429688 36.910156 22.425781 Z M 36.910156 17.582031 "/>
<path style=" stroke:none;fill-rule:nonzero;fill:url(#linear2);" d="M 35.628906 16.261719 C 31.882812 16.261719 28.847656 13.222656 28.847656 9.476562 L 24 9.476562 L 24 28.457031 C 24 30.230469 22.859375 31.804688 21.175781 32.363281 C 19.492188 32.921875 17.640625 32.339844 16.578125 30.917969 C 15.515625 29.496094 15.480469 27.554688 16.496094 26.097656 C 17.507812 24.640625 19.339844 23.996094 21.042969 24.496094 L 21.042969 19.785156 C 17.429688 19.300781 13.894531 21.101562 12.167969 24.3125 C 10.441406 27.523438 10.886719 31.46875 13.289062 34.210938 C 15.6875 36.957031 19.535156 37.925781 22.949219 36.644531 C 26.359375 35.363281 28.621094 32.101562 28.621094 28.457031 L 28.761719 18.863281 C 30.753906 20.324219 33.160156 21.109375 35.632812 21.105469 Z M 35.628906 16.261719 "/>
<path style=" stroke:none;fill-rule:nonzero;fill:url(#linear3);" d="M 35.628906 17.460938 C 33.953125 17.136719 32.460938 16.195312 31.449219 14.816406 C 30.167969 13.816406 29.292969 12.390625 28.976562 10.796875 L 25.28125 10.796875 L 25.28125 29.777344 C 25.28125 31.628906 24.046875 33.253906 22.265625 33.75 C 20.484375 34.25 18.585938 33.5 17.625 31.914062 C 15.910156 30.796875 15.273438 28.589844 16.128906 26.730469 C 16.984375 24.871094 19.078125 23.917969 21.042969 24.496094 L 21.042969 21.03125 C 17.714844 21.074219 14.703125 23 13.265625 26 C 11.828125 29 12.21875 32.554688 14.269531 35.171875 C 16.878906 37.347656 20.507812 37.816406 23.582031 36.378906 C 26.65625 34.9375 28.621094 31.851562 28.621094 28.457031 L 28.761719 18.863281 C 30.753906 20.324219 33.160156 21.109375 35.632812 21.105469 Z M 35.628906 17.460938 "/>
</g>
</svg>
