<?xml version="1.0" encoding="UTF-8"?>
<svg xmlns="http://www.w3.org/2000/svg" xmlns:xlink="http://www.w3.org/1999/xlink" width="48" height="48" viewBox="0 0 48 48" version="1.1">
<g id="surface1">
<path style=" stroke:none;fill-rule:evenodd;fill:rgb(89.019608%,27.058825%,7.843138%);fill-opacity:1;" d="M 24 48 C 37.253906 48 48 37.253906 48 24 C 48 10.746094 37.253906 0 24 0 C 10.746094 0 0 10.746094 0 24 C 0 37.253906 10.746094 48 24 48 Z M 24 48 "/>
<path style=" stroke:none;fill-rule:evenodd;fill:rgb(100%,100%,100%);fill-opacity:1;" d="M 24.839844 8 C 25.117188 8.214844 25.363281 8.480469 25.628906 8.714844 C 28.042969 11.011719 30.253906 13.550781 32.03125 16.382812 C 33.753906 19.125 35.078125 22.15625 35.664062 25.355469 C 35.988281 27.113281 36.097656 28.910156 35.90625 30.6875 C 35.820312 31.429688 35.691406 32.171875 35.457031 32.882812 C 35.128906 33.910156 34.699219 34.910156 34.105469 35.8125 C 33.597656 36.59375 32.960938 37.289062 32.222656 37.855469 C 31.414062 38.472656 30.492188 38.925781 29.527344 39.234375 C 28.332031 39.621094 27.078125 39.8125 25.832031 39.914062 C 24.339844 40.027344 22.839844 40.046875 21.351562 39.855469 C 19.664062 39.644531 17.992188 39.195312 16.492188 38.375 C 15.105469 37.621094 13.882812 36.515625 13.097656 35.121094 C 12.191406 33.527344 11.890625 31.640625 12.035156 29.820312 C 12.183594 27.890625 12.789062 26.019531 13.597656 24.273438 C 14.292969 22.773438 15.148438 21.351562 16.097656 20 C 16.90625 18.855469 17.78125 17.753906 18.734375 16.726562 C 18.75 16.714844 18.78125 16.683594 18.800781 16.671875 C 18.785156 17.539062 18.867188 18.410156 19.113281 19.242188 C 19.367188 20.09375 19.789062 20.894531 20.351562 21.578125 C 20.386719 21.621094 20.410156 21.679688 20.472656 21.6875 C 21.691406 20.761719 22.847656 19.726562 23.746094 18.476562 C 24.679688 17.1875 25.304688 15.675781 25.542969 14.097656 C 25.859375 12.050781 25.585938 9.925781 24.839844 8 Z M 24.839844 8 "/>
</g>
</svg>
