<?xml version="1.0" encoding="UTF-8"?>
<svg xmlns="http://www.w3.org/2000/svg" xmlns:xlink="http://www.w3.org/1999/xlink" width="48" height="48" viewBox="0 0 48 48" version="1.1">
<g id="surface1">
<path style=" stroke:none;fill-rule:evenodd;fill:rgb(20.392157%,27.058825%,36.470589%);fill-opacity:1;" d="M 24 48 C 37.253906 48 48 37.253906 48 24 C 48 10.746094 37.253906 0 24 0 C 10.746094 0 0 10.746094 0 24 C 0 37.253906 10.746094 48 24 48 Z M 24 48 "/>
<path style=" stroke:none;fill-rule:evenodd;fill:rgb(100%,100%,100%);fill-opacity:1;" d="M 31.828125 33.558594 C 31.246094 33.84375 30.132812 34.089844 29.300781 34.113281 C 26.792969 34.179688 26.304688 32.3125 26.285156 30.957031 L 26.285156 20.996094 L 32.574219 20.996094 L 32.574219 16.152344 L 26.308594 16.152344 L 26.308594 8 L 21.722656 8 C 21.644531 8 21.515625 8.066406 21.496094 8.238281 C 21.226562 10.734375 20.085938 15.113281 15.332031 16.863281 L 15.332031 20.996094 L 18.503906 20.996094 L 18.503906 31.453125 C 18.503906 35.03125 21.085938 40.117188 27.910156 39.996094 C 30.210938 39.957031 32.769531 38.972656 33.332031 38.125 L 31.828125 33.558594 "/>
</g>
</svg>
