<?xml version="1.0" encoding="UTF-8"?>
<svg xmlns="http://www.w3.org/2000/svg" xmlns:xlink="http://www.w3.org/1999/xlink" width="48" height="48" viewBox="0 0 48 48" version="1.1">
<g id="surface1">
<path style=" stroke:none;fill-rule:nonzero;fill:rgb(39.215687%,25.490198%,64.705884%);fill-opacity:1;" d="M 48 24 C 48 37.253906 37.253906 48 24 48 C 10.746094 48 0 37.253906 0 24 C 0 10.746094 10.746094 0 24 0 C 37.253906 0 48 10.746094 48 24 Z M 48 24 "/>
<path style=" stroke:none;fill-rule:nonzero;fill:rgb(100%,100%,100%);fill-opacity:1;" d="M 24 17.765625 L 24 25.59375 L 21.382812 25.59375 L 21.382812 17.765625 Z M 31.171875 17.765625 L 31.171875 25.59375 L 28.554688 25.59375 L 28.554688 17.765625 Z M 31.171875 31.460938 L 35.738281 26.886719 L 35.738281 12.554688 L 14.210938 12.554688 L 14.210938 31.460938 L 20.089844 31.460938 L 20.089844 35.371094 L 24 31.460938 Z M 38.351562 9.9375 L 38.351562 28.199219 L 30.523438 36.027344 L 24.648438 36.027344 L 20.738281 39.9375 L 16.828125 39.9375 L 16.828125 36.027344 L 9.65625 36.027344 L 9.65625 15.148438 L 11.625 9.9375 C 11.625 9.9375 38.351562 9.9375 38.351562 9.9375 Z M 38.351562 9.9375 "/>
</g>
</svg>
