<?xml version="1.0" encoding="UTF-8"?>
<svg xmlns="http://www.w3.org/2000/svg" xmlns:xlink="http://www.w3.org/1999/xlink" width="48" height="48" viewBox="0 0 48 48" version="1.1">
<g id="surface1">
<path style=" stroke:none;fill-rule:nonzero;fill:rgb(10.980392%,71.764708%,92.156863%);fill-opacity:1;" d="M 48 24 C 48 37.253906 37.253906 48 24 48 C 10.746094 48 0 37.253906 0 24 C 0 10.746094 10.746094 0 24 0 C 37.253906 0 48 10.746094 48 24 Z M 48 24 "/>
<path style=" stroke:none;fill-rule:nonzero;fill:rgb(100%,100%,100%);fill-opacity:1;" d="M 36.800781 15.398438 C 35.898438 15.898438 34.800781 16.199219 33.800781 16.300781 C 34.898438 15.601562 35.699219 14.5 36.101562 13.199219 C 35.101562 13.800781 34 14.300781 32.699219 14.601562 C 31.699219 13.5 30.398438 12.800781 28.898438 12.800781 C 26 12.800781 23.601562 15.300781 23.601562 18.5 C 23.601562 18.898438 23.601562 19.398438 23.699219 19.800781 C 19.300781 19.601562 15.398438 17.300781 12.800781 13.898438 C 12.300781 14.699219 12.101562 15.699219 12.101562 16.800781 C 12.101562 18.800781 13 20.5 14.398438 21.5 C 13.5 21.5 12.699219 21.199219 12 20.800781 C 12 20.800781 12 20.898438 12 20.898438 C 12 23.601562 13.800781 25.898438 16.199219 26.5 C 15.800781 26.601562 15.300781 26.699219 14.800781 26.699219 C 14.5 26.699219 14.101562 26.699219 13.800781 26.601562 C 14.5 28.898438 16.398438 30.5 18.699219 30.5 C 16.898438 32 14.601562 32.898438 12.199219 32.898438 C 11.800781 32.898438 11.398438 32.898438 10.898438 32.800781 C 13.199219 34.398438 16 35.398438 19 35.398438 C 28.699219 35.398438 34 26.800781 34 19.300781 C 34 19.101562 34 18.800781 34 18.601562 C 35.199219 17.601562 36.101562 16.601562 36.800781 15.398438 Z M 36.800781 15.398438 "/>
</g>
</svg>
