<?xml version="1.0" encoding="UTF-8"?>
<svg xmlns="http://www.w3.org/2000/svg" xmlns:xlink="http://www.w3.org/1999/xlink" width="48" height="48" viewBox="0 0 48 48" version="1.1">
<g id="surface1">
<path style=" stroke:none;fill-rule:evenodd;fill:rgb(49.803922%,30.19608%,62.7451%);fill-opacity:1;" d="M 24 48 C 37.253906 48 48 37.253906 48 24 C 48 10.746094 37.253906 0 24 0 C 10.746094 0 0 10.746094 0 24 C 0 37.253906 10.746094 48 24 48 Z M 24 48 "/>
<path style=" stroke:none;fill-rule:evenodd;fill:rgb(100%,100%,100%);fill-opacity:1;" d="M 24 6.667969 C 33.574219 6.667969 41.332031 14.425781 41.332031 24 C 41.332031 33.574219 33.574219 41.332031 24 41.332031 C 14.425781 41.332031 6.667969 33.574219 6.667969 24 C 6.667969 14.425781 14.425781 6.667969 24 6.667969 Z M 25.039062 13.726562 C 26.214844 13.875 27.167969 14.160156 28.214844 14.667969 C 29.242188 15.171875 29.898438 15.644531 30.769531 16.511719 C 31.585938 17.328125 32.039062 17.949219 32.515625 18.910156 C 33.183594 20.25 33.566406 21.84375 33.628906 23.601562 C 33.65625 24.199219 33.636719 24.332031 33.5 24.503906 C 33.242188 24.835938 32.667969 24.78125 32.472656 24.40625 C 32.410156 24.285156 32.394531 24.179688 32.375 23.699219 C 32.339844 22.964844 32.289062 22.488281 32.183594 21.921875 C 31.78125 19.691406 30.710938 17.914062 29.003906 16.636719 C 27.582031 15.570312 26.113281 15.050781 24.1875 14.9375 C 23.539062 14.902344 23.425781 14.875 23.277344 14.765625 C 23.003906 14.546875 22.988281 14.042969 23.253906 13.804688 C 23.414062 13.660156 23.527344 13.636719 24.085938 13.65625 C 24.375 13.664062 24.804688 13.699219 25.039062 13.726562 Z M 17.207031 14.097656 C 17.324219 14.136719 17.511719 14.234375 17.617188 14.300781 C 18.269531 14.734375 20.082031 17.050781 20.671875 18.207031 C 21.011719 18.867188 21.125 19.355469 21.019531 19.71875 C 20.910156 20.105469 20.726562 20.3125 19.917969 20.964844 C 19.589844 21.230469 19.285156 21.5 19.238281 21.570312 C 19.113281 21.75 19.015625 22.097656 19.015625 22.34375 C 19.019531 22.914062 19.386719 23.953125 19.875 24.75 C 20.25 25.367188 20.925781 26.164062 21.59375 26.769531 C 22.378906 27.488281 23.070312 27.980469 23.851562 28.367188 C 24.855469 28.863281 25.46875 28.992188 25.917969 28.78125 C 26.03125 28.730469 26.152344 28.664062 26.1875 28.632812 C 26.222656 28.601562 26.488281 28.28125 26.773438 27.925781 C 27.332031 27.226562 27.457031 27.113281 27.835938 26.984375 C 28.320312 26.820312 28.8125 26.863281 29.308594 27.117188 C 29.6875 27.3125 30.507812 27.820312 31.039062 28.191406 C 31.738281 28.679688 33.234375 29.898438 33.4375 30.140625 C 33.792969 30.578125 33.855469 31.140625 33.613281 31.757812 C 33.359375 32.414062 32.375 33.636719 31.683594 34.160156 C 31.0625 34.632812 30.621094 34.8125 30.035156 34.839844 C 29.558594 34.863281 29.359375 34.824219 28.746094 34.570312 C 23.933594 32.589844 20.09375 29.632812 17.046875 25.574219 C 15.453125 23.453125 14.238281 21.253906 13.410156 18.972656 C 12.925781 17.640625 12.902344 17.0625 13.300781 16.382812 C 13.472656 16.09375 14.203125 15.382812 14.730469 14.984375 C 15.617188 14.328125 16.023438 14.085938 16.347656 14.019531 C 16.570312 13.96875 16.960938 14.007812 17.207031 14.097656 Z M 25.273438 16.207031 C 27.355469 16.511719 28.964844 17.476562 30.019531 19.042969 C 30.613281 19.925781 30.984375 20.960938 31.109375 22.074219 C 31.152344 22.480469 31.152344 23.222656 31.105469 23.347656 C 31.0625 23.464844 30.917969 23.621094 30.792969 23.683594 C 30.660156 23.753906 30.375 23.746094 30.21875 23.664062 C 29.953125 23.53125 29.875 23.320312 29.875 22.746094 C 29.875 21.859375 29.644531 20.925781 29.25 20.199219 C 28.796875 19.371094 28.140625 18.6875 27.335938 18.210938 C 26.648438 17.800781 25.632812 17.496094 24.703125 17.421875 C 24.367188 17.394531 24.179688 17.324219 24.054688 17.179688 C 23.859375 16.957031 23.839844 16.65625 24.003906 16.40625 C 24.179688 16.128906 24.457031 16.085938 25.273438 16.207031 Z M 26.003906 18.789062 C 26.679688 18.933594 27.195312 19.191406 27.636719 19.605469 C 28.207031 20.140625 28.519531 20.792969 28.65625 21.726562 C 28.75 22.335938 28.710938 22.574219 28.496094 22.773438 C 28.292969 22.957031 27.917969 22.964844 27.695312 22.789062 C 27.527344 22.667969 27.476562 22.535156 27.441406 22.183594 C 27.394531 21.714844 27.3125 21.386719 27.171875 21.082031 C 26.871094 20.4375 26.339844 20.101562 25.441406 19.992188 C 25.019531 19.941406 24.894531 19.890625 24.757812 19.730469 C 24.507812 19.433594 24.601562 18.949219 24.949219 18.773438 C 25.078125 18.707031 25.132812 18.703125 25.421875 18.71875 C 25.601562 18.730469 25.863281 18.757812 26.003906 18.789062 Z M 26.003906 18.789062 "/>
</g>
</svg>
