<?xml version="1.0" encoding="UTF-8"?>
<svg xmlns="http://www.w3.org/2000/svg" xmlns:xlink="http://www.w3.org/1999/xlink" width="48" height="48" viewBox="0 0 48 48" version="1.1">
<g id="surface1">
<path style=" stroke:none;fill-rule:evenodd;fill:rgb(0%,69.803923%,91.764706%);fill-opacity:1;" d="M 24 48 C 37.253906 48 48 37.253906 48 24 C 48 10.746094 37.253906 0 24 0 C 10.746094 0 0 10.746094 0 24 C 0 37.253906 10.746094 48 24 48 Z M 24 48 "/>
<path style=" stroke:none;fill-rule:evenodd;fill:rgb(100%,100%,100%);fill-opacity:1;" d="M 39.984375 16.984375 C 39.84375 20.066406 37.664062 24.277344 33.460938 29.621094 C 29.113281 35.207031 25.425781 38 22.414062 38 C 20.550781 38 18.972656 36.300781 17.683594 32.894531 C 16.820312 29.765625 15.960938 26.640625 15.101562 23.519531 C 14.140625 20.113281 13.113281 18.40625 12.015625 18.40625 C 11.777344 18.40625 10.941406 18.90625 9.503906 19.902344 L 8 17.980469 C 9.578125 16.613281 11.128906 15.238281 12.664062 13.867188 C 14.765625 12.066406 16.34375 11.125 17.394531 11.023438 C 19.878906 10.785156 21.410156 12.46875 21.988281 16.0625 C 22.605469 19.949219 23.035156 22.359375 23.277344 23.308594 C 23.996094 26.527344 24.78125 28.132812 25.644531 28.132812 C 26.3125 28.132812 27.316406 27.089844 28.65625 25.011719 C 29.996094 22.925781 30.707031 21.34375 30.804688 20.253906 C 30.996094 18.453125 30.28125 17.558594 28.65625 17.558594 C 27.890625 17.558594 27.097656 17.71875 26.289062 18.054688 C 27.867188 12.992188 30.878906 10.527344 35.328125 10.671875 C 38.621094 10.765625 40.175781 12.871094 39.984375 16.984375 "/>
</g>
</svg>
