<?xml version="1.0" encoding="UTF-8"?>
<svg xmlns="http://www.w3.org/2000/svg" xmlns:xlink="http://www.w3.org/1999/xlink" width="48" height="48" viewBox="0 0 48 48" version="1.1">
<g id="surface1">
<path style=" stroke:none;fill-rule:evenodd;fill:rgb(0%,71.372551%,52.941179%);fill-opacity:1;" d="M 24 48 C 37.253906 48 48 37.253906 48 24 C 48 10.746094 37.253906 0 24 0 C 10.746094 0 0 10.746094 0 24 C 0 37.253906 10.746094 48 24 48 Z M 24 48 "/>
<path style=" stroke:none;fill-rule:evenodd;fill:rgb(100%,100%,100%);fill-opacity:1;" d="M 37.332031 23.910156 C 36.550781 24.09375 35.792969 24.175781 35.109375 24.175781 C 31.273438 24.175781 28.316406 21.472656 28.316406 16.773438 C 28.316406 14.46875 29.199219 13.273438 30.449219 13.273438 C 31.636719 13.273438 32.429688 14.347656 32.429688 16.527344 C 32.429688 17.769531 32.101562 19.125 31.855469 19.929688 C 31.855469 19.929688 33.039062 22.007812 36.273438 21.371094 C 36.960938 19.835938 37.332031 17.84375 37.332031 16.097656 C 37.332031 11.398438 34.957031 8.667969 30.601562 8.667969 C 26.125 8.667969 23.503906 12.136719 23.503906 16.710938 C 23.503906 21.246094 25.605469 25.136719 29.070312 26.910156 C 27.613281 29.847656 25.761719 32.4375 23.824219 34.386719 C 20.316406 30.113281 17.144531 24.40625 15.84375 13.273438 L 10.667969 13.273438 C 13.058594 31.816406 20.1875 37.71875 22.070312 38.851562 C 23.136719 39.5 24.054688 39.46875 25.03125 38.914062 C 26.558594 38.035156 31.15625 33.40625 33.703125 27.980469 C 34.769531 27.976562 36.054688 27.855469 37.332031 27.5625 Z M 37.332031 23.910156 "/>
</g>
</svg>
