<?xml version="1.0" encoding="UTF-8"?>
<svg xmlns="http://www.w3.org/2000/svg" xmlns:xlink="http://www.w3.org/1999/xlink" width="48" height="48" viewBox="0 0 48 48" version="1.1">
<g id="surface1">
<path style=" stroke:none;fill-rule:evenodd;fill:rgb(0.392157%,90.196079%,45.882353%);fill-opacity:1;" d="M 24 48 C 37.253906 48 48 37.253906 48 24 C 48 10.746094 37.253906 0 24 0 C 10.746094 0 0 10.746094 0 24 C 0 37.253906 10.746094 48 24 48 Z M 24 48 "/>
<path style=" stroke:none;fill-rule:evenodd;fill:rgb(100%,100%,100%);fill-opacity:1;" d="M 23.996094 8 L 24.003906 8 C 32.824219 8 40 15.175781 40 24 C 40 32.824219 32.824219 40 24.003906 40 C 20.75 40 17.730469 39.03125 15.203125 37.355469 L 9.054688 39.324219 L 11.046875 33.378906 C 9.128906 30.742188 8 27.5 8 24 C 8 15.175781 15.175781 8 23.996094 8 Z M 19.527344 16.128906 C 19.21875 15.382812 18.984375 15.355469 18.511719 15.335938 C 18.351562 15.328125 18.175781 15.316406 17.976562 15.316406 C 17.367188 15.316406 16.726562 15.496094 16.339844 15.890625 C 15.871094 16.371094 14.703125 17.492188 14.703125 19.785156 C 14.703125 22.082031 16.378906 24.300781 16.605469 24.613281 C 16.839844 24.921875 19.867188 29.699219 24.570312 31.648438 C 28.246094 33.171875 29.335938 33.03125 30.171875 32.851562 C 31.394531 32.589844 32.929688 31.683594 33.3125 30.59375 C 33.699219 29.503906 33.699219 28.570312 33.585938 28.375 C 33.472656 28.175781 33.164062 28.0625 32.695312 27.828125 C 32.222656 27.59375 29.9375 26.464844 29.503906 26.3125 C 29.082031 26.152344 28.679688 26.210938 28.359375 26.664062 C 27.90625 27.292969 27.464844 27.933594 27.109375 28.316406 C 26.824219 28.617188 26.363281 28.65625 25.980469 28.496094 C 25.460938 28.28125 24.015625 27.773438 22.226562 26.183594 C 20.84375 24.949219 19.90625 23.417969 19.632812 22.957031 C 19.359375 22.484375 19.605469 22.214844 19.820312 21.960938 C 20.054688 21.667969 20.28125 21.460938 20.515625 21.1875 C 20.75 20.914062 20.882812 20.773438 21.03125 20.453125 C 21.191406 20.144531 21.078125 19.824219 20.96875 19.589844 C 20.855469 19.351562 19.914062 17.058594 19.527344 16.128906 Z M 19.527344 16.128906 "/>
</g>
</svg>
