<?xml version="1.0" encoding="UTF-8"?>
<svg xmlns="http://www.w3.org/2000/svg" xmlns:xlink="http://www.w3.org/1999/xlink" width="48" height="48" viewBox="0 0 48 48" version="1.1">
<g id="surface1">
<path style=" stroke:none;fill-rule:evenodd;fill:rgb(82.745099%,13.333334%,0%);fill-opacity:1;" d="M 24 48 C 37.253906 48 48 37.253906 48 24 C 48 10.746094 37.253906 0 24 0 C 10.746094 0 0 10.746094 0 24 C 0 37.253906 10.746094 48 24 48 Z M 24 48 "/>
<path style=" stroke:none;fill-rule:evenodd;fill:rgb(100%,100%,100%);fill-opacity:1;" d="M 12.609375 23.40625 C 12.851562 23.019531 13.203125 22.820312 13.59375 22.835938 C 13.851562 22.839844 14.078125 22.921875 19.160156 25.050781 C 19.164062 25.050781 20.640625 25.664062 20.640625 25.664062 C 21.179688 25.871094 21.503906 26.4375 21.472656 27.078125 C 21.4375 27.703125 21.085938 28.191406 20.5625 28.328125 C 20.550781 28.332031 18.449219 29.011719 18.449219 29.011719 C 13.722656 30.554688 13.566406 30.601562 13.316406 30.585938 C 12.921875 30.574219 12.578125 30.335938 12.375 29.941406 C 12.226562 29.65625 12.121094 29.175781 12.0625 28.601562 C 11.882812 26.863281 12.101562 24.238281 12.609375 23.40625 Z M 23.976562 39.269531 C 23.839844 39.644531 23.523438 39.894531 23.082031 39.976562 C 21.816406 40.195312 17.859375 38.71875 17.035156 37.71875 C 16.867188 37.511719 16.769531 37.289062 16.746094 37.066406 C 16.730469 36.910156 16.75 36.753906 16.804688 36.601562 C 16.890625 36.351562 17.035156 36.152344 20.597656 31.90625 C 20.601562 31.90625 21.636719 30.65625 21.636719 30.65625 C 21.992188 30.207031 22.625 30.066406 23.210938 30.292969 C 23.78125 30.519531 24.128906 31.015625 24.09375 31.5625 C 24.09375 31.585938 24.082031 33.8125 24.082031 33.8125 C 24.070312 38.859375 24.058594 39.027344 23.976562 39.269531 Z M 32.003906 37.511719 C 31.589844 37.683594 31.195312 37.640625 30.882812 37.390625 C 30.679688 37.230469 30.464844 36.90625 27.660156 32.277344 L 26.824219 30.898438 C 26.507812 30.402344 26.570312 29.75 26.96875 29.257812 C 27.351562 28.769531 27.925781 28.589844 28.425781 28.789062 C 28.453125 28.800781 30.527344 29.496094 30.527344 29.496094 C 35.25 31.070312 35.40625 31.132812 35.605469 31.285156 C 35.910156 31.53125 36.046875 31.921875 35.984375 32.371094 C 35.800781 33.664062 33.199219 37.03125 32.003906 37.511719 Z M 29.566406 25.597656 C 28.703125 25.804688 28.230469 25.921875 27.964844 26.027344 C 27.96875 26.019531 27.992188 25.980469 27.992188 25.980469 C 27.457031 26.132812 26.871094 25.871094 26.523438 25.332031 C 26.191406 24.8125 26.191406 24.203125 26.535156 23.78125 C 26.550781 23.765625 27.851562 21.964844 27.851562 21.964844 C 30.726562 17.972656 30.878906 17.765625 31.085938 17.625 C 31.417969 17.398438 31.824219 17.386719 32.226562 17.582031 C 33.363281 18.148438 35.675781 21.632812 35.8125 22.972656 C 35.816406 22.988281 35.8125 23.003906 35.8125 23.019531 C 35.839844 23.472656 35.679688 23.84375 35.355469 24.066406 C 35.140625 24.207031 34.933594 24.277344 29.566406 25.597656 Z M 24.171875 21.09375 C 24.261719 22.9375 23.484375 23.183594 23.226562 23.265625 C 22.972656 23.34375 22.191406 23.589844 21.230469 22.007812 C 21.230469 22.007812 14.738281 11.632812 14.585938 11.3125 C 14.492188 10.953125 14.609375 10.546875 14.917969 10.214844 C 15.890625 9.199219 21.128906 7.703125 22.5 8.050781 C 22.945312 8.164062 23.253906 8.453125 23.367188 8.859375 C 23.441406 9.304688 24.082031 18.933594 24.171875 21.09375 Z M 24.171875 21.09375 "/>
</g>
</svg>
