<?xml version="1.0" encoding="UTF-8"?>
<svg xmlns="http://www.w3.org/2000/svg" xmlns:xlink="http://www.w3.org/1999/xlink" width="48" height="48" viewBox="0 0 48 48" version="1.1">
<g id="surface1">
<path style=" stroke:none;fill-rule:evenodd;fill:rgb(100%,0%,0.784314%);fill-opacity:1;" d="M 24 48 C 37.253906 48 48 37.253906 48 24 C 48 10.746094 37.253906 0 24 0 C 10.746094 0 0 10.746094 0 24 C 0 37.253906 10.746094 48 24 48 Z M 24 48 "/>
<path style=" stroke:none;fill-rule:evenodd;fill:rgb(100%,100%,100%);fill-opacity:1;" d="M 20.695312 28.179688 L 20.695312 19.125 L 29.339844 23.667969 Z M 39.679688 17.554688 C 39.679688 17.554688 39.367188 15.335938 38.40625 14.359375 C 37.191406 13.074219 35.828125 13.066406 35.203125 12.992188 C 30.722656 12.667969 24.007812 12.667969 24.007812 12.667969 L 23.992188 12.667969 C 23.992188 12.667969 17.277344 12.667969 12.796875 12.992188 C 12.171875 13.066406 10.808594 13.074219 9.589844 14.359375 C 8.632812 15.335938 8.320312 17.554688 8.320312 17.554688 C 8.320312 17.554688 8 20.164062 8 22.773438 L 8 25.21875 C 8 27.824219 8.320312 30.433594 8.320312 30.433594 C 8.320312 30.433594 8.632812 32.652344 9.589844 33.632812 C 10.808594 34.914062 12.40625 34.875 13.121094 35.007812 C 15.679688 35.257812 24 35.332031 24 35.332031 C 24 35.332031 30.722656 35.324219 35.203125 34.996094 C 35.828125 34.921875 37.191406 34.914062 38.40625 33.632812 C 39.367188 32.652344 39.679688 30.433594 39.679688 30.433594 C 39.679688 30.433594 40 27.824219 40 25.21875 L 40 22.773438 C 40 20.164062 39.679688 17.554688 39.679688 17.554688 Z M 39.679688 17.554688 "/>
</g>
</svg>
