<?xml version="1.0" encoding="UTF-8"?>
<svg xmlns="http://www.w3.org/2000/svg" xmlns:xlink="http://www.w3.org/1999/xlink" width="48" height="48" viewBox="0 0 48 48" version="1.1">
<g id="surface1">
<path style=" stroke:none;fill-rule:nonzero;fill:rgb(100%,0%,0%);fill-opacity:1;" d="M 24 1.199219 C 11.40625 1.199219 1.199219 11.433594 1.199219 24.058594 C 2.402344 54.382812 45.601562 54.375 46.800781 24.058594 C 46.800781 11.433594 36.59375 1.199219 24 1.199219 Z M 24 37.152344 C 16.78125 37.152344 10.910156 31.28125 10.910156 24.0625 C 11.265625 15.105469 17.945312 11.039062 24 11.039062 C 30.054688 11.039062 36.734375 15.105469 37.089844 24.03125 C 37.089844 31.28125 31.21875 37.152344 24 37.152344 Z M 24 37.152344 "/>
<path style=" stroke:none;fill-rule:nonzero;fill:rgb(100%,0%,0%);fill-opacity:1;" d="M 24 12.53125 C 16.347656 12.527344 12.621094 18.523438 12.402344 24.089844 C 12.402344 30.457031 17.605469 35.660156 24 35.660156 C 30.394531 35.660156 35.597656 30.457031 35.597656 24.0625 C 35.378906 18.523438 31.65625 12.53125 24 12.53125 Z M 24 12.53125 "/>
<path style=" stroke:none;fill-rule:nonzero;fill:rgb(94.509804%,94.509804%,94.509804%);fill-opacity:1;" d="M 19.707031 25.214844 C 19.707031 26.449219 19.707031 28.988281 19.707031 30.234375 C 19.707031 30.234375 30.171875 23.792969 30.171875 23.792969 L 19.707031 17.890625 Z M 19.707031 25.214844 "/>
</g>
</svg>
